<svg width="94" height="34" viewBox="0 0 94 34" fill="none" xmlns="http://www.w3.org/2000/svg">
<g id="Ecom2023 1">
<path id="Vector" d="M57.0955 0.254883C62.8261 0.254883 67.4966 4.87866 67.4966 10.552C67.4966 16.2254 62.8548 20.8208 57.0955 20.8491V17.2466C60.8204 17.2466 63.8577 14.2397 63.8577 10.552C63.8577 6.86433 60.8204 3.85746 57.0955 3.85746C53.3706 3.85746 50.3333 6.86433 50.3333 10.552H46.6943C46.6657 4.87866 51.3075 0.28325 57.0095 0.254883C57.0382 0.254883 57.0668 0.254883 57.0955 0.254883Z" fill="#0634FD"/>
<path id="Vector_2" d="M81.5653 2.38239C82.8547 1.02078 84.6599 0.254883 86.551 0.254883V3.85746C84.8318 3.88583 83.4278 5.24743 83.4278 6.94943V20.764H79.7888V6.94943C79.7888 5.24743 78.3848 3.85746 76.6656 3.85746C74.9464 3.85746 73.5424 5.24743 73.5424 6.94943V20.764H69.9034V6.94943C69.9034 3.26176 72.912 0.254883 76.637 0.254883C78.4994 0.254883 80.3046 1.02078 81.5653 2.38239ZM93.3132 10.4669V20.764H89.6742V10.4669H93.3132Z" fill="#0634FD"/>
<path id="Vector_3" d="M44.2589 10.467C44.2589 16.1404 39.6171 20.7642 33.8578 20.7642C28.1271 20.7642 23.4567 16.1688 23.4567 10.467C23.4567 4.7937 28.0985 0.169922 33.8578 0.169922V3.7725C30.1329 3.7725 27.0956 6.77937 27.0956 10.467C27.0956 14.1547 30.1329 17.1616 33.8578 17.1616C37.5827 17.1616 40.62 14.1547 40.62 10.467H44.2589Z" fill="#0634FD"/>
<path id="Vector_4" d="M4.25887 12.3109C5.06116 15.2043 7.72592 17.19 10.7345 17.1616V20.7642C5.00386 20.7642 0.333374 16.1688 0.333374 10.467C0.333374 4.76533 4.9752 0.169922 10.7345 0.169922C16.4938 0.169922 21.1356 4.76533 21.1356 10.467C21.1356 11.0627 21.0783 11.6585 20.9924 12.2258H4.25887V12.3109ZM17.2675 8.70831C16.2646 5.16247 12.5397 3.0917 8.95801 4.08453C6.6944 4.7086 4.9179 6.46734 4.28753 8.70831H17.2675Z" fill="#0634FD"/>
<path id="Vector_5" d="M15.9208 17.1616H21.9666C22.9408 17.1616 23.7431 17.9559 23.7431 18.9204C23.7431 19.8848 22.9408 20.6791 21.9666 20.6791H15.9208C14.9466 20.6791 14.1443 19.9132 14.1443 18.9487V18.9204C14.1729 17.9559 14.9466 17.19 15.9208 17.1616Z" fill="#EE722E"/>
<path id="Vector_6" d="M80.9922 26.5512V28.5369C80.9922 28.8489 80.7343 29.1042 80.4191 29.1042C80.1039 29.1042 79.8461 28.8489 79.8461 28.5369V26.5512C79.8461 26.2392 80.1039 25.9839 80.4191 25.9839C80.763 25.9839 80.9922 26.2392 80.9922 26.5512Z" fill="#0634FD"/>
<path id="Vector_7" d="M26.6084 28.3096V29.4442H26.3218C25.892 29.4159 25.4909 29.5861 25.1757 29.8697C24.8892 30.2101 24.7173 30.6356 24.7459 31.0611V33.5858H23.5425V28.3663H24.6886V29.1322C25.0325 28.5932 25.6915 28.3096 26.6084 28.3096Z" fill="#0634FD"/>
<path id="Vector_8" d="M32.5112 31.4018H28.3851C28.471 31.7706 28.6716 32.0826 28.9581 32.3095C29.7604 32.8485 30.8206 32.7634 31.5083 32.111L32.1387 32.8769C31.8808 33.1605 31.5656 33.3875 31.2218 33.5009C30.3335 33.813 29.3593 33.7846 28.5283 33.3591C28.1272 33.1605 27.7834 32.8201 27.5255 32.4514C27.2963 32.0259 27.1816 31.5436 27.1816 31.033C27.1816 30.5508 27.2963 30.0969 27.5255 29.6998C27.7547 29.3027 28.0985 28.9623 28.5283 28.7921C28.9581 28.5651 29.4452 28.4517 29.961 28.4517C30.4481 28.4517 30.9066 28.5651 31.3077 28.7921C31.7089 28.9906 32.024 29.331 32.2246 29.6998C32.4538 30.1253 32.5685 30.6075 32.5685 31.1181C32.5112 31.1181 32.5112 31.2032 32.5112 31.4018ZM28.8722 29.6431C28.5857 29.87 28.4137 30.2104 28.3851 30.5508H31.365C31.3077 30.182 31.1358 29.87 30.8779 29.6431C30.3049 29.1892 29.4739 29.1892 28.8722 29.6431Z" fill="#0634FD"/>
<path id="Vector_9" d="M36.8664 33.3309C36.7232 33.4727 36.5512 33.5578 36.3793 33.6145C36.1788 33.6713 35.9495 33.6996 35.749 33.6713C35.2618 33.6996 34.7747 33.5578 34.4022 33.2458C34.0584 32.877 33.8865 32.3948 33.9151 31.9125V29.3879H33.0555V28.3951H33.9151V27.1753H35.1186V28.3667H36.5512V29.3595H35.1186V31.8842C35.0899 32.2813 35.4051 32.6217 35.8063 32.6501C35.8349 32.6501 35.8636 32.6501 35.8922 32.6501C36.1501 32.6501 36.408 32.5933 36.6086 32.4515L36.8664 33.3309Z" fill="#0634FD"/>
<path id="Vector_10" d="M41.6228 28.8771C42.0526 29.2175 42.2531 29.7848 42.2531 30.5791V33.6144H41.107V32.9903C40.9637 33.2172 40.7345 33.4158 40.4766 33.4725C40.1615 33.6144 39.8176 33.6995 39.4738 33.6711C39.1013 33.6711 38.7574 33.586 38.4136 33.4725C38.1557 33.3307 37.8978 33.1321 37.6973 32.9052C37.554 32.6783 37.468 32.3946 37.4967 32.1393C37.468 31.7138 37.64 31.2883 37.9838 31.0046C38.4709 30.6926 39.044 30.5508 39.617 30.5791H41.0497V30.5224C41.0497 30.2104 40.9351 29.8983 40.7059 29.6714C40.4193 29.4444 40.0755 29.3593 39.703 29.3877C39.4165 29.3877 39.1299 29.4444 38.8434 29.5296C38.5855 29.6147 38.3563 29.7281 38.1271 29.87L37.64 28.9622C37.9552 28.7636 38.2703 28.5934 38.6428 28.48C39.044 28.3665 39.4451 28.3098 39.8463 28.3381C40.5053 28.2814 41.1357 28.48 41.6228 28.8771ZM40.5626 32.5364C40.7918 32.3946 40.9638 32.196 41.0497 31.9691V31.345H39.7603C39.044 31.345 38.7001 31.5436 38.7001 32.0542C38.6715 32.2528 38.7861 32.4513 38.9867 32.5364C39.1872 32.6783 39.4451 32.7634 39.703 32.735C40.0182 32.7634 40.3047 32.6783 40.5626 32.5364Z" fill="#0634FD"/>
<path id="Vector_11" d="M43.915 27.3169C43.6285 27.0616 43.6285 26.6361 43.8864 26.3524L43.915 26.3241C44.2302 26.0404 44.7173 26.0404 45.0612 26.3241C45.2044 26.4375 45.2904 26.6361 45.2617 26.8063C45.2904 27.2034 44.9752 27.5438 44.5741 27.5722C44.5454 27.5722 44.5168 27.5722 44.4881 27.5722C44.2589 27.5438 44.087 27.4587 43.915 27.3169ZM43.8291 28.3949H45.0325V33.6143H43.8291V28.3949Z" fill="#0634FD"/>
<path id="Vector_12" d="M46.6942 26.3525H47.8977V33.6144H46.6942V26.3525Z" fill="#0634FD"/>
<path id="Vector_13" d="M60.4192 28.395L58.4994 33.6145H57.296L55.9493 30.0119L54.6026 33.6145H53.3991L51.4794 28.395H52.6255L53.9722 32.1962L55.4049 28.395H56.465L57.8977 32.2813L59.3304 28.395H60.4192Z" fill="#0634FD"/>
<path id="Vector_14" d="M66.0639 31.4018H61.9378C62.0238 31.7706 62.2243 32.0826 62.5109 32.3095C63.3132 32.8485 64.3733 32.7634 65.061 32.111L65.6914 32.8769C65.4335 33.1605 65.1183 33.3875 64.7745 33.5009C63.8862 33.813 62.912 33.7846 62.0811 33.3591C61.6799 33.1605 61.3361 32.8201 61.0782 32.4514C60.849 32.0259 60.7344 31.5436 60.7344 31.033C60.7344 30.5508 60.849 30.0969 61.0782 29.6998C61.3074 29.3027 61.6513 28.9623 62.0811 28.7921C62.5109 28.5651 62.998 28.4517 63.5137 28.4517C64.0008 28.4517 64.4593 28.5651 64.8604 28.7921C65.2616 28.9906 65.5768 29.331 65.7773 29.6998C66.0066 30.1253 66.1212 30.6075 66.1212 31.1181C66.0639 31.2032 66.0352 31.3167 66.0639 31.4018ZM62.4249 29.6431C62.1384 29.87 61.9665 30.2104 61.9378 30.5508H64.9177C64.8604 30.182 64.6885 29.87 64.4306 29.6431C64.1441 29.4161 63.8003 29.2743 63.4278 29.3027C63.0553 29.3027 62.7114 29.4445 62.4249 29.6431Z" fill="#0634FD"/>
<path id="Vector_15" d="M72.1672 31.4018H68.0411C68.127 31.7706 68.3276 32.0826 68.6141 32.3095C69.4164 32.8485 70.4766 32.7634 71.1643 32.111L71.7947 32.8769C71.5368 33.1605 71.2216 33.3875 70.8778 33.5009C69.9895 33.813 69.0153 33.7846 68.1843 33.3591C67.7832 33.1605 67.4394 32.8201 67.1815 32.4514C66.9523 32.0259 66.8376 31.5436 66.8376 31.033C66.8376 30.5508 66.9523 30.0969 67.1815 29.6998C67.4107 29.3027 67.7545 28.9623 68.1843 28.7921C68.6141 28.5651 69.1012 28.4517 69.617 28.4517C70.1041 28.4517 70.5626 28.5651 70.9637 28.7921C71.3649 28.9906 71.68 29.331 71.8806 29.6998C72.1098 30.1253 72.2245 30.6075 72.2245 31.1181C72.1958 31.2032 72.1672 31.3167 72.1672 31.4018ZM68.5568 29.6431C68.2703 29.87 68.0984 30.2104 68.0697 30.5508H71.0497C70.9924 30.182 70.8205 29.87 70.5626 29.6431C70.276 29.4161 69.9322 29.2743 69.5597 29.3027C69.1872 29.3027 68.8434 29.4445 68.5568 29.6431Z" fill="#0634FD"/>
<path id="Vector_16" d="M75.5196 31.3451L74.6027 32.1961V33.5293H73.3993V26.3525H74.6027V30.721L77.1529 28.3949H78.6428L76.4365 30.5792L78.8434 33.6144H77.3534L75.5196 31.3451Z" fill="#0634FD"/>
<path id="Vector_17" d="M87.6399 32.5365V33.586H82.5109V32.735L85.2903 30.1253C85.5195 29.8984 85.7488 29.6147 85.9207 29.3594C86.0353 29.1608 86.0926 28.9339 86.0639 28.7353C86.0926 28.4517 85.9493 28.1964 85.7201 28.0262C85.4336 27.856 85.1184 27.7425 84.8032 27.7425C84.1728 27.6858 83.5711 27.9411 83.17 28.4517L82.2531 27.7425C82.5396 27.3737 82.9121 27.0901 83.3132 26.8915C83.8003 26.6929 84.3447 26.5795 84.8892 26.6078C85.5195 26.5795 86.1499 26.778 86.6657 27.1752C87.0955 27.5156 87.3247 28.0545 87.296 28.5935C87.296 28.9623 87.2101 29.3027 87.0955 29.6431C86.8949 30.0969 86.5797 30.4657 86.1786 30.7777L84.3161 32.5365H87.6399Z" fill="#0634FD"/>
<path id="Vector_18" d="M93.1699 30.2103C93.5137 30.5791 93.7143 31.0613 93.657 31.5435C93.6856 31.9123 93.571 32.2811 93.3704 32.5931C93.1412 32.9335 92.826 33.2172 92.4535 33.359C91.9951 33.5576 91.4793 33.671 90.9636 33.6427C90.4765 33.6427 89.9893 33.5859 89.5309 33.4441C89.1298 33.3023 88.7286 33.1321 88.3848 32.8768L88.9578 31.8839C89.2444 32.0825 89.5596 32.2527 89.8747 32.3662C90.2472 32.508 90.6197 32.5931 91.0209 32.5647C91.3934 32.5931 91.7659 32.4796 92.081 32.2811C92.3389 32.1109 92.5108 31.8272 92.5108 31.5152C92.5108 31.2315 92.3962 30.9195 92.167 30.7493C91.8232 30.5223 91.422 30.4089 91.0209 30.4656H90.1613V29.6146L91.7372 27.7708H88.614V26.7212H93.3131V27.5722L91.5939 29.5579C92.1957 29.6146 92.7401 29.8132 93.1699 30.2103Z" fill="#0634FD"/>
</g>
</svg>
