<svg width="58" height="58" viewBox="0 0 58 58" fill="none" xmlns="http://www.w3.org/2000/svg">
<g id="Frame" clip-path="url(#clip0_667_519)">
<g id="Group">
<path id="Vector" d="M47.125 58H10.875C7.99077 58 5.22467 56.8542 3.18521 54.8148C1.14576 52.7753 0 50.0092 0 47.125L0 10.875C0 7.99077 1.14576 5.22467 3.18521 3.18521C5.22467 1.14576 7.99077 0 10.875 0L47.125 0C50.0092 0 52.7753 1.14576 54.8148 3.18521C56.8542 5.22467 58 7.99077 58 10.875V47.125C58 50.0092 56.8542 52.7753 54.8148 54.8148C52.7753 56.8542 50.0092 58 47.125 58Z" fill="#FFE6E2"/>
<path id="Vector_2" d="M31.6626 43.5162C31.5093 43.5157 31.3586 43.4771 31.224 43.4038L25.453 40.2138L19.682 43.4038C19.5332 43.4859 19.3642 43.5245 19.1945 43.5151C19.0248 43.5058 18.8612 43.4489 18.7223 43.351C18.5833 43.2531 18.4747 43.1181 18.4089 42.9614C18.343 42.8048 18.3225 42.6327 18.3498 42.465L19.4627 35.6463L14.7592 30.8251C14.6438 30.7056 14.5633 30.5567 14.5266 30.3946C14.4899 30.2326 14.4983 30.0636 14.5511 29.906C14.6038 29.7484 14.6987 29.6083 14.8255 29.5009C14.9524 29.3936 15.1062 29.3231 15.2704 29.2971L21.7355 28.3093L24.6355 22.1323C24.7089 21.9771 24.8249 21.846 24.9699 21.7541C25.115 21.6623 25.2831 21.6135 25.4548 21.6135C25.6265 21.6135 25.7946 21.6623 25.9396 21.7541C26.0847 21.846 26.2006 21.9771 26.274 22.1323L29.174 28.3093L35.6392 29.2971C35.8034 29.3231 35.9572 29.3936 36.084 29.5009C36.2109 29.6083 36.3058 29.7484 36.3585 29.906C36.4112 30.0636 36.4197 30.2326 36.383 30.3946C36.3463 30.5567 36.2658 30.7056 36.1504 30.8251L31.4469 35.6463L32.5598 42.465C32.5808 42.5948 32.5734 42.7276 32.5379 42.8542C32.5025 42.9808 32.4399 43.0982 32.3546 43.1983C32.2692 43.2983 32.1631 43.3785 32.0436 43.4334C31.9241 43.4883 31.7941 43.5166 31.6626 43.5162Z" fill="#FC573B"/>
<path id="Vector_3" d="M42.9744 22.8737C42.8082 22.7963 42.6225 22.7713 42.4418 22.8021C42.2612 22.8328 42.0942 22.9179 41.963 23.0458C40.9824 24.001 38.7096 24.2548 37.1943 24.2856C38.0081 21.9547 41.1655 18.1666 43.2408 16.0568C43.3662 15.9296 43.4513 15.7681 43.4852 15.5927C43.5191 15.4173 43.5004 15.2357 43.4314 15.0709C43.3625 14.9061 43.2464 14.7653 43.0976 14.6663C42.9489 14.5673 42.7742 14.5144 42.5956 14.5144C33.7016 14.5144 29.5456 17.012 27.6678 18.9224C27.8309 17.882 28.4109 17.2948 28.4436 17.2603C28.5752 17.1356 28.6664 16.9743 28.7054 16.7972C28.7444 16.62 28.7293 16.4353 28.6622 16.2668C28.595 16.0984 28.4789 15.9539 28.3287 15.8522C28.1786 15.7505 28.0014 15.6961 27.8201 15.6962H27.8128C27.608 15.698 22.7342 15.7741 19.4989 18.9858C16.5789 21.8822 17.1535 25.9259 17.4091 27.1312L20.5084 26.6582L22.997 21.3566C23.4429 20.4068 24.4089 19.7942 25.4584 19.7942C26.5078 19.7942 27.4739 20.4087 27.9197 21.3584L30.4083 26.66L35.9165 27.5028C36.4109 27.577 36.8752 27.7866 37.2578 28.1084C37.6404 28.4302 37.9265 28.8517 38.0842 29.3262C38.4087 30.2995 38.1658 31.3562 37.4517 32.0884L33.3862 36.2553L33.5167 37.0601C34.7398 36.7524 35.9265 36.315 37.0566 35.7551C42.8094 33.1977 43.4764 24.1424 43.5036 23.7563C43.5141 23.5731 43.4692 23.391 43.3748 23.2336C43.2804 23.0762 43.1409 22.9508 42.9744 22.8737Z" fill="#FD907E"/>
</g>
</g>
<defs>
<clipPath id="clip0_667_519">
<rect width="58" height="58" fill="white"/>
</clipPath>
</defs>
</svg>
