<svg width="118" height="30" viewBox="0 0 118 30" fill="none" xmlns="http://www.w3.org/2000/svg">
<g id="Logo Paygine">
<path id="Vector" d="M82.4904 8.45004V10.9195L84.041 11.4764V21.6934H87.4572V8.45004H82.4904ZM85.4705 2.78467C84.3802 2.78467 83.5564 3.7047 83.5564 4.74577C83.5564 5.81105 84.3802 6.70681 85.4705 6.70681C86.5365 6.70681 87.4572 5.81105 87.4572 4.74577C87.4572 3.7047 86.5607 2.78467 85.4705 2.78467Z" fill="white"/>
<path id="Vector_2" d="M88.7169 8.45012V21.6934H92.2785V14.3818C92.2785 12.8807 93.2234 11.5249 94.9436 11.5249C96.252 11.5249 97.2695 12.3481 97.2695 13.8976V21.6934H100.807V13.728C100.807 9.51535 98.2872 8.20801 95.8643 8.20801C93.0538 8.20801 92.012 10.2175 92.012 10.2175L91.4547 8.45012H88.7169Z" fill="white"/>
<path id="Vector_3" d="M101.486 15.2048C101.486 19.248 104.417 21.9596 108.391 21.9596C110.159 21.9596 112.049 21.5722 113.358 20.8217L112.195 18.2554C111.322 18.6427 109.966 19.0543 108.463 19.0543C106.889 19.0543 105.265 18.3522 105.12 16.4637H113.987C113.987 16.4637 114.109 15.8342 114.109 14.9384C114.109 11.4279 112.122 8.23203 108.051 8.23203C104.126 8.18361 101.486 11.1373 101.486 15.2048ZM105.071 13.97C105.411 12.1784 106.598 11.2342 108.245 11.2342C110.184 11.2342 110.741 12.5173 110.814 13.97H105.071Z" fill="white"/>
<path id="Vector_4" d="M57.0018 8.4502L62.1383 21.6209C61.9687 22.1293 61.7021 22.6377 61.1691 22.6377C60.5876 22.6619 59.4974 22.4925 59.0371 22.4198L58.4313 25.6157C59.4247 25.9304 60.3696 26.0515 61.2661 26.0515C63.4224 26.0515 64.3915 25.0104 65.3849 22.5651L71.0543 8.47437H67.3716L64.0281 18.0377H63.9554L60.7088 8.47437H57.0018V8.4502Z" fill="white"/>
<path id="Vector_5" fill-rule="evenodd" clip-rule="evenodd" d="M72.5324 8.6194C73.2835 8.32887 74.1315 8.18359 75.0764 8.18359C75.5852 8.18359 76.409 8.23204 76.8935 8.44994H81.7877V10.9678L80.1401 11.3794C80.3339 11.7184 80.6247 12.2752 80.6247 13.2195C80.6247 15.6405 78.7591 17.5048 75.2944 17.5048C74.6403 17.5048 73.4773 17.4079 72.6777 17.0205C72.4597 17.1416 72.2174 17.4321 72.2174 17.6985C72.2174 18.8364 74.3738 18.788 76.9662 18.788C80.6005 18.788 81.3273 20.5311 81.3273 22.1775C81.3273 25.4217 77.6446 26.0028 75.4883 26.0028C73.3562 26.0028 69.4312 25.5912 69.4312 22.5164C69.4312 20.9911 70.3518 20.4827 70.8606 20.168C69.9399 19.7322 69.4312 18.909 69.4312 17.9163C69.4312 16.7784 70.0853 16.1247 70.8122 15.6647C70.5456 15.3742 70.3034 15.0837 70.1096 14.7448L72.4113 8.98256C72.4355 8.88572 72.4597 8.88571 72.484 8.78886C72.5324 8.76465 72.5324 8.69203 72.5324 8.6194ZM77.2085 21.3301C77.9838 21.3301 78.3714 21.6933 78.3714 22.1775C78.3714 23.3154 76.4332 23.3638 75.6337 23.3638C74.0588 23.3638 72.4355 23.3154 72.4355 22.1291C72.4355 21.7175 72.6778 21.2817 72.9927 21.1364C73.6469 21.2817 74.398 21.3301 77.2085 21.3301ZM75.2217 10.7257C76.6754 10.7257 77.4508 11.6941 77.4508 12.8805C77.4508 14.2363 76.5301 15.1563 75.1975 15.1563C73.7681 15.1563 72.8474 14.1879 72.8474 12.9047C72.8232 11.6942 73.7196 10.7257 75.2217 10.7257Z" fill="white"/>
<path id="Vector_6" d="M38.2248 11.2584C40.0904 11.2584 41.6168 12.7594 41.6168 15.0837C41.6168 17.3595 40.0661 18.909 38.2248 18.909C36.0685 18.909 34.7117 17.3353 34.7117 15.0837C34.7117 12.6384 36.335 11.2584 38.2248 11.2584ZM38.8305 8.18359C37.5948 8.18359 35.9958 8.88571 35.0751 10.2415L34.4694 8.4257H31.6831V26.0028H35.0751V19.9985C35.9473 21.4511 37.9099 21.9354 38.8063 21.9354C42.9009 21.9354 45.0814 18.7153 45.0814 15.1079C45.0814 11.1858 42.7313 8.18359 38.8305 8.18359Z" fill="white"/>
<path id="Vector_7" d="M46.5839 9.27316L47.2138 11.7427C48.2072 11.5248 50.0486 11.2343 51.2115 11.2343C52.2776 11.2343 53.6101 11.5006 53.6101 13.4132V13.8006C52.7621 13.7037 51.7445 13.6311 50.8723 13.6311C47.8437 13.6311 45.4209 15.0111 45.4209 17.868C45.4209 20.6765 47.7711 22.1776 50.194 22.1776C52.0111 22.1776 53.5617 21.2091 54.3128 19.9017V20.1923C54.3128 21.6449 55.718 21.9354 56.5418 21.9354C57.4867 21.9354 58.5527 21.5723 58.6497 21.4996V18.7154C58.1166 18.7638 57.6805 18.788 57.4867 18.788C57.099 18.788 56.9294 18.6912 56.9294 18.328V12.8321C56.9294 9.95105 55.0638 8.42578 51.793 8.42578C49.9759 8.42578 47.7711 8.88579 46.5839 9.27316ZM53.5859 16.0764V17.408C53.5859 18.6428 52.0595 19.5385 50.7512 19.5385C49.6124 19.5385 48.5948 18.8849 48.5948 17.6985C48.5948 16.1491 50.3393 15.8585 51.478 15.8585C52.1564 15.8827 52.9318 15.9796 53.5859 16.0764Z" fill="white"/>
<path id="Vector_8" d="M14.578 1.81641L25.9654 8.42598V21.6209L14.578 28.2305L6.29183 23.4367L3.16638 21.6451V21.6209V20.3619V20.3377V8.40174C6.97025 6.22277 10.7741 4.01959 14.578 1.81641ZM14.0449 25.543L14.5538 25.8335L23.8817 20.4346V19.8293C20.6109 21.742 17.34 23.6304 14.0449 25.543ZM11.4768 24.042L11.9855 24.3325L22.8641 18.0377L22.3553 17.7472C18.721 19.8293 15.0868 21.9356 11.4768 24.042ZM8.88432 22.5409L9.39308 22.8314L20.2717 16.5366L19.7629 16.2461C16.1286 18.3282 12.4944 20.4346 8.88432 22.5409ZM16.1529 15.3261L14.578 16.2461H14.5538L6.21919 21.0156L6.80065 21.3545L17.6792 15.0597L17.1704 14.7692C16.8312 14.9387 16.4921 15.1324 16.1529 15.3261ZM5.25005 17.4324L6.7522 18.304L7.28522 18.0135L5.25005 16.8271C5.25005 17.045 5.25005 17.2387 5.25005 17.4324ZM5.25005 14.4303L9.36889 16.803L9.9019 16.5124L5.27424 13.825C5.25002 14.0429 5.25005 14.2366 5.25005 14.4303ZM19.2056 13.5103L23.906 16.2219V15.6166L19.7386 13.1955C19.5448 13.3166 19.3752 13.4134 19.2056 13.5103ZM5.25005 11.4281L11.9613 15.3261L12.4943 15.0355L5.25005 10.8228C5.25005 11.0165 5.25005 11.2344 5.25005 11.4281ZM14.5053 13.2439L6.80065 8.74073L6.29183 9.03125L14.5538 13.825L15.0868 13.5103L22.7914 8.98284L22.3311 8.7165C19.7387 10.2176 17.122 11.7428 14.5053 13.2439ZM21.798 12.0092L23.906 13.2439V12.6386L22.3069 11.7187C22.1373 11.8155 21.9676 11.9124 21.798 12.0092ZM8.86007 7.53019L14.5053 10.8228L15.0626 10.5081L9.39308 7.21544C9.22348 7.33649 9.05389 7.43334 8.86007 7.53019ZM11.4525 6.02913L17.1462 9.32177L17.655 9.03125L11.9613 5.73855C11.8159 5.83539 11.6463 5.93228 11.4525 6.02913ZM14.0449 4.52801L19.7386 7.82071L20.2717 7.53019L14.578 4.23749C14.4084 4.33433 14.2388 4.43117 14.0449 4.52801Z" fill="white"/>
</g>
</svg>
