<svg width="68" height="24" viewBox="0 0 68 24" fill="none" xmlns="http://www.w3.org/2000/svg">
<g id="logo_expo2023 1">
<path id="Vector" d="M8.67605 20.6809L8.1892 21.1412C7.85726 20.7905 7.48106 20.6151 7.0606 20.6151C6.70652 20.6151 6.39671 20.7247 6.15328 20.9878C5.90986 21.2289 5.77708 21.5358 5.77708 21.8865C5.77708 22.1276 5.82134 22.3468 5.93199 22.5441C6.04264 22.7413 6.19754 22.8948 6.39671 23.0044C6.59587 23.114 6.81717 23.1578 7.0606 23.1578C7.25976 23.1578 7.45893 23.114 7.63596 23.0482C7.813 22.9825 7.99004 22.829 8.1892 22.6317L8.67605 23.1359C8.4105 23.3989 8.14494 23.5962 7.90152 23.6839C7.65809 23.7935 7.37041 23.8373 7.0606 23.8373C6.48523 23.8373 5.99838 23.662 5.6443 23.2893C5.2681 22.9167 5.09106 22.4564 5.09106 21.8865C5.09106 21.5138 5.17958 21.185 5.33449 20.9001C5.51153 20.6151 5.73282 20.374 6.06477 20.2206C6.37458 20.0452 6.70652 19.9575 7.08273 19.9575C7.39254 19.9575 7.68022 20.0233 7.96791 20.1548C8.23346 20.2644 8.47689 20.4398 8.67605 20.6809Z" fill="#E24812"/>
<path id="Vector_2" d="M9.45058 20.0454H10.2472L11.0218 21.2291L11.7963 20.0454H12.593L11.4201 21.8428L12.6815 23.7499H11.8848L11.0218 22.4566L10.1587 23.7499H9.36206L10.6234 21.8428L9.45058 20.0454Z" fill="#E24812"/>
<path id="Vector_3" d="M13.611 20.0454H14.3634C14.7617 20.0454 15.0715 20.0893 15.2486 20.155C15.4256 20.2208 15.5805 20.3523 15.669 20.5057C15.7797 20.6811 15.8239 20.8784 15.8239 21.0976C15.8239 21.3606 15.7575 21.5798 15.6248 21.7332C15.492 21.9086 15.3149 22.0182 15.0715 22.084C14.9387 22.1278 14.6953 22.1497 14.3191 22.1497V23.706H13.611V20.0454ZM14.3191 21.4702H14.5404C14.7174 21.4702 14.8502 21.4483 14.9166 21.4264C14.983 21.4044 15.0494 21.3606 15.0715 21.2948C15.1158 21.2291 15.1379 21.1633 15.1379 21.0756C15.1379 20.9222 15.0715 20.8345 14.9609 20.7688C14.8723 20.7249 14.7396 20.703 14.5183 20.703H14.3191V21.4702Z" fill="#E24812"/>
<path id="Vector_4" d="M18.6565 19.9355C19.1876 19.9355 19.6302 20.1328 20.0064 20.5055C20.3826 20.8781 20.5818 21.3384 20.5818 21.8864C20.5818 22.4344 20.4047 22.8728 20.0285 23.2455C19.6523 23.6181 19.2097 23.8154 18.6565 23.8154C18.1033 23.8154 17.6385 23.6181 17.2623 23.2455C16.8861 22.8728 16.7091 22.4125 16.7091 21.8864C16.7091 21.5357 16.7976 21.2069 16.9747 20.9219C17.1517 20.6151 17.3951 20.3959 17.6828 20.2205C17.9926 20.0232 18.3024 19.9355 18.6565 19.9355ZM18.6565 20.637C18.3024 20.637 18.0148 20.7466 17.7935 20.9877C17.55 21.2288 17.4394 21.5357 17.4394 21.8864C17.4394 22.3029 17.5943 22.6098 17.882 22.8509C18.1033 23.0263 18.3688 23.1359 18.6786 23.1359C19.0106 23.1359 19.2983 23.0043 19.5417 22.7851C19.7851 22.544 19.8958 22.2371 19.8958 21.8864C19.8958 21.5357 19.7851 21.2288 19.5417 20.9877C19.2761 20.7466 18.9885 20.637 18.6565 20.637Z" fill="#E24812"/>
<path id="Vector_5" d="M21.9982 21.1849H21.5998L21.467 19.9136H22.1309L21.9982 21.1849Z" fill="#E24812"/>
<path id="Vector_6" fill-rule="evenodd" clip-rule="evenodd" d="M39.3477 8.05512H47.1594V0.317383L39.3477 8.05512Z" fill="#007670"/>
<path id="Vector_7" fill-rule="evenodd" clip-rule="evenodd" d="M0.333252 0.120117H15.9567V3.97802H4.22806V7.85785H12.0398V11.7158H4.22806V15.5956H15.9567V19.4535H0.333252V0.120117Z" fill="#E24812"/>
<path id="Vector_8" fill-rule="evenodd" clip-rule="evenodd" d="M27.8182 5.31525C26.8224 4.50421 25.5389 4.04389 24.1447 4.04389C20.9138 4.04389 18.3025 6.63044 18.3025 9.83075C18.3025 13.0311 20.9138 15.6176 24.1447 15.6176C25.5389 15.6176 26.8224 15.1354 27.8403 14.3243L30.0533 17.437C28.3936 18.7302 26.3134 19.4974 24.034 19.4974C18.6344 19.4974 14.2749 15.1573 14.2749 9.83075C14.2749 4.48229 18.6566 0.164062 24.034 0.164062C26.2913 0.164062 28.3714 0.93126 30.0312 2.20262L27.8182 5.31525Z" fill="#E24812"/>
<path id="Vector_9" fill-rule="evenodd" clip-rule="evenodd" d="M47.8896 19.4754V0.120117H51.8066L57.6488 5.9289L63.5131 0.120117H67.4301V19.4754H63.5131V5.88506L57.693 11.7377L51.7623 5.9289V19.4754H47.8896Z" fill="#E24812"/>
<path id="Vector_10" fill-rule="evenodd" clip-rule="evenodd" d="M42.3574 6.56458C41.2951 5.03018 39.5248 4.02186 37.5331 4.02186C34.3022 4.02186 31.6909 6.60842 31.6909 9.80873C31.6909 13.009 34.3022 15.5956 37.5331 15.5956C40.764 15.5956 43.3753 13.009 43.3753 9.80873C43.3753 9.45801 43.3311 9.10729 43.2868 8.77849H47.1374C47.1816 9.10729 47.1816 9.45801 47.1816 9.78681C47.1816 15.1353 42.8 19.4535 37.4225 19.4535C32.0229 19.4535 27.6633 15.1133 27.6633 9.78681C27.6633 4.43834 32.045 0.120117 37.4225 0.120117C40.7419 0.120117 43.6851 1.76411 45.4334 4.2849L42.3574 6.56458Z" fill="#007670"/>
<path id="Vector_11" d="M4.09528 21.5796H0.333252V22.2153H4.09528V21.5796Z" fill="#007670"/>
<path id="Vector_12" d="M67.4302 21.5796H29.9205V22.2153H67.4302V21.5796Z" fill="#007670"/>
<path id="Vector_13" d="M7.1492 21.5576H5.26819V22.1933H7.1492V21.5576Z" fill="#E24812"/>
<path id="Vector_14" d="M23.4808 21.2288H22.7948C22.8169 20.8343 22.9276 20.5274 23.171 20.2863C23.3923 20.0671 23.7021 19.9355 24.0562 19.9355C24.2775 19.9355 24.4767 19.9794 24.6537 20.0671C24.8307 20.1547 24.9635 20.2863 25.0742 20.4835C25.1848 20.6589 25.2291 20.8343 25.2291 21.0315C25.2291 21.2507 25.1627 21.4919 25.052 21.733C24.9193 21.9741 24.698 22.281 24.366 22.6317L23.9456 23.0701H25.2733V23.7058H22.7063V23.377L23.857 22.2152C24.1447 21.9303 24.3218 21.7111 24.4103 21.5357C24.4988 21.3603 24.5431 21.2069 24.5431 21.0754C24.5431 20.9439 24.4988 20.8123 24.4103 20.7247C24.3218 20.637 24.189 20.5931 24.0341 20.5931C23.8792 20.5931 23.7464 20.6589 23.6579 20.7685C23.5251 20.9 23.4808 21.0315 23.4808 21.2288Z" fill="#E24812"/>
<g id="Group">
<path id="Vector_15" d="M27.0658 20.922H26.4019C26.4462 20.659 26.5347 20.4398 26.6896 20.2863C26.9109 20.0671 27.1765 19.9575 27.5084 19.9575C27.7961 19.9575 28.0617 20.0452 28.2608 20.2425C28.46 20.4398 28.5706 20.659 28.5706 20.9001C28.5706 21.0535 28.5264 21.207 28.4379 21.3385C28.3493 21.47 28.2166 21.5796 28.0617 21.6673C28.283 21.733 28.46 21.8426 28.5706 21.9961C28.7034 22.1495 28.7477 22.3468 28.7477 22.566C28.7477 22.8948 28.637 23.1578 28.3936 23.377C28.1502 23.5962 27.8404 23.7058 27.4863 23.7058C27.1322 23.7058 26.8445 23.5962 26.6232 23.3989C26.4019 23.1797 26.2913 22.8948 26.2692 22.5441H26.9552C26.9773 22.7194 27.0437 22.8729 27.1543 22.9605C27.265 23.0482 27.3756 23.0921 27.5306 23.0921C27.6855 23.0921 27.8182 23.0482 27.9289 22.9386C28.0395 22.829 28.0838 22.7194 28.0838 22.566C28.0838 22.4125 28.0174 22.2591 27.8625 22.1495C27.7076 22.0399 27.5084 21.9742 27.2429 21.9742V21.3823C27.3978 21.3604 27.5306 21.3385 27.6191 21.3166C27.7076 21.2727 27.774 21.2289 27.8182 21.1631C27.8625 21.0974 27.8846 21.0316 27.8846 20.9439C27.8846 20.8562 27.8404 20.7686 27.774 20.7028C27.7076 20.637 27.6191 20.6151 27.5084 20.6151C27.4199 20.6151 27.3314 20.637 27.2429 20.7028C27.1543 20.7686 27.088 20.8343 27.0658 20.922Z" fill="#E24812"/>
</g>
</g>
</svg>
