<svg width="196" height="40" viewBox="0 0 196 40" fill="none" xmlns="http://www.w3.org/2000/svg">
<g id="method">
<g id="Subtract">
<path fill-rule="evenodd" clip-rule="evenodd" d="M194.044 0C194.966 0 195.713 0.746192 195.713 1.66667V25.9473C195.574 28.3105 194.935 30.4447 193.796 32.3496C192.534 34.5201 190.763 36.2354 188.484 37.4955C186.24 38.7207 183.662 39.3334 180.752 39.3334C177.876 39.3334 175.317 38.7207 173.073 37.4955C170.828 36.2354 169.058 34.5201 167.76 32.3496C166.463 30.1792 165.814 27.7113 165.814 24.9459C165.814 22.1454 166.463 19.6774 167.76 17.5421C169.058 15.3717 170.828 13.6739 173.073 12.4487C175.317 11.2234 177.876 10.6109 180.752 10.6109C183.662 10.6109 186.24 11.2234 188.484 12.4487C188.793 12.6151 189.093 12.7896 189.384 12.9727V1.66667C189.384 0.746192 190.131 0 191.053 0H194.044ZM185.065 32.6647C183.803 33.3648 182.365 33.7149 180.752 33.7149C179.174 33.7149 177.754 33.3648 176.491 32.6647C175.264 31.9646 174.282 30.9494 173.546 29.6191C172.809 28.289 172.441 26.7312 172.441 24.9459C172.441 23.1255 172.809 21.5678 173.546 20.2725C174.282 18.9423 175.264 17.9271 176.491 17.227C177.754 16.5269 179.191 16.1769 180.804 16.1769C182.382 16.1769 183.803 16.5269 185.065 17.227C186.327 17.9271 187.309 18.9423 188.01 20.2725C188.747 21.5678 189.115 23.1255 189.115 24.9459C189.115 26.7312 188.747 28.289 188.01 29.6191C187.309 30.9494 186.327 31.9646 185.065 32.6647Z" fill="black"/>
<path d="M115.656 10.6108C117.9 10.6108 119.898 11.0483 121.652 11.9234C123.44 12.7986 124.843 14.1463 125.86 15.9666C126.877 17.752 127.385 20.0624 127.385 22.8978V37.299C127.385 38.2195 126.637 38.9657 125.715 38.9657H122.48C121.558 38.9657 120.81 38.2195 120.81 37.299V23.738C120.81 21.2525 120.214 19.3973 119.022 18.172C117.865 16.9468 116.234 16.3342 114.13 16.3342C112.587 16.3342 111.22 16.6493 110.028 17.2794C108.835 17.9094 107.906 18.8547 107.24 20.1148C106.609 21.34 106.293 22.8978 106.293 24.7882V37.299C106.293 38.2195 105.546 38.9657 104.624 38.9657H101.388C100.466 38.9657 99.7184 38.2195 99.7184 37.299V1.67053C99.7184 0.750057 100.466 0.00386556 101.388 0.00386556H104.624C105.546 0.00386556 106.293 0.750058 106.293 1.67053V14.2018C107.086 13.3476 108.033 12.6406 109.133 12.081C111.027 11.1008 113.201 10.6108 115.656 10.6108Z" fill="black"/>
<path d="M87.998 39.3332C84.9123 39.3332 82.5279 38.5455 80.8448 36.9703C79.1616 35.36 78.3199 32.9971 78.3199 29.8816V14.7201H76.6346C76.3489 13.8142 75.9795 12.9608 75.5266 12.1598C74.9604 11.1586 74.2973 10.2617 73.5371 9.4691H78.3199V3.06305C78.3199 2.14257 79.0674 1.39638 79.9894 1.39638H83.2253C84.1473 1.39638 84.8948 2.14258 84.8948 3.06305V9.4691H90.7468C91.6688 9.4691 92.4163 10.2153 92.4163 11.1358V13.0534C92.4163 13.9739 91.6688 14.7201 90.7468 14.7201H84.8948V29.724C84.8948 31.0543 85.2278 32.0869 85.8942 32.8221C86.5955 33.5572 87.5598 33.9248 88.7871 33.9248C89.8175 33.9248 90.7277 33.7363 91.5179 33.3592C92.0223 33.1185 92.6747 33.2923 92.8793 33.8117L93.8644 36.3124C94.1298 36.986 93.9369 37.7708 93.3028 38.1218C92.755 38.425 92.1439 38.6712 91.4694 38.8606C90.3473 39.1757 89.1902 39.3332 87.998 39.3332Z" fill="black"/>
<path fill-rule="evenodd" clip-rule="evenodd" d="M139.052 37.4954C141.296 38.7206 143.856 39.3332 146.731 39.3332C149.641 39.3332 152.219 38.7206 154.463 37.4954C156.742 36.2351 158.513 34.5199 159.775 32.3494C161.073 30.1791 161.721 27.7112 161.721 24.9457C161.721 22.1102 161.073 19.6247 159.775 17.4894C158.513 15.354 156.742 13.6737 154.463 12.4485C152.219 11.2233 149.641 10.6108 146.731 10.6108C143.856 10.6108 141.296 11.2233 139.052 12.4485C136.807 13.6737 135.037 15.3715 133.739 17.5419C132.442 19.6773 131.793 22.1452 131.793 24.9457C131.793 27.7112 132.442 30.1791 133.739 32.3494C135.037 34.5199 136.807 36.2351 139.052 37.4954ZM151.044 32.6646C149.782 33.3647 148.344 33.7147 146.731 33.7147C145.153 33.7147 143.733 33.3647 142.47 32.6646C141.243 31.9644 140.261 30.9492 139.525 29.619C138.789 28.2888 138.42 26.7311 138.42 24.9457C138.42 23.1254 138.789 21.5676 139.525 20.2724C140.261 18.9422 141.243 17.9269 142.47 17.2269C143.733 16.5267 145.171 16.1767 146.784 16.1767C148.362 16.1767 149.782 16.5267 151.044 17.2269C152.306 17.9269 153.288 18.9422 153.989 20.2724C154.726 21.5676 155.094 23.1254 155.094 24.9457C155.094 26.7311 154.726 28.2888 153.989 29.619C153.288 30.9492 152.306 31.9644 151.044 32.6646Z" fill="black"/>
</g>
<g id="Union">
<path fill-rule="evenodd" clip-rule="evenodd" d="M52.3698 37.2174C51.1205 36.5371 50.0193 35.7242 49.0663 34.7787V21.6997C49.0663 19.3015 48.6975 17.2978 47.9599 15.6885C49.0726 14.2545 50.4373 13.0818 52.0543 12.1706C54.2634 10.9454 56.7706 10.3328 59.5758 10.3328C62.3109 10.3328 64.7479 10.9279 66.8869 12.1181C69.0259 13.3083 70.7091 14.9886 71.9363 17.1589C73.1636 19.3293 73.7773 21.8848 73.7773 24.8253C73.7773 25.1053 73.7598 25.4204 73.7247 25.7704C73.7247 26.3395 73.2408 26.7681 72.6708 26.7681H51.634C51.8137 27.7372 52.1467 28.6299 52.6328 29.4461C53.4043 30.7413 54.4913 31.739 55.8939 32.4391C57.2965 33.1392 58.9096 33.4893 60.733 33.4893C62.3109 33.4893 63.731 33.2442 64.9934 32.7542C65.6985 32.4804 66.3599 32.1193 66.9775 31.6708C67.7784 31.0891 68.9255 31.0929 69.5757 31.8389L70.9373 33.4011C71.4809 34.0248 71.4925 34.9624 70.8817 35.5207C69.8085 36.5017 68.547 37.2948 67.0973 37.9001C65.2038 38.6702 63.0297 39.0553 60.5752 39.0553C57.4543 39.0553 54.7192 38.4426 52.3698 37.2174ZM67.5594 22.4099H51.5752C51.7191 21.3581 52.019 20.4129 52.475 19.5744C53.1763 18.3142 54.1231 17.334 55.3153 16.6339C56.5426 15.9337 57.9628 15.5837 59.5758 15.5837C61.1537 15.5837 62.5388 15.9337 63.731 16.6339C64.9583 17.334 65.9226 18.2966 66.6239 19.5219C67.1199 20.3883 67.4317 21.3509 67.5594 22.4099Z" fill="#FF1173"/>
<path fill-rule="evenodd" clip-rule="evenodd" d="M52.3698 37.2174C51.1205 36.5371 50.0193 35.7242 49.0663 34.7787V21.6997C49.0663 19.3015 48.6975 17.2978 47.9599 15.6885C49.0726 14.2545 50.4373 13.0818 52.0543 12.1706C54.2634 10.9454 56.7706 10.3328 59.5758 10.3328C62.3109 10.3328 64.7479 10.9279 66.8869 12.1181C69.0259 13.3083 70.7091 14.9886 71.9363 17.1589C73.1636 19.3293 73.7773 21.8848 73.7773 24.8253C73.7773 25.1053 73.7598 25.4204 73.7247 25.7704C73.7247 26.3395 73.2408 26.7681 72.6708 26.7681H51.634C51.8137 27.7372 52.1467 28.6299 52.6328 29.4461C53.4043 30.7413 54.4913 31.739 55.8939 32.4391C57.2965 33.1392 58.9096 33.4893 60.733 33.4893C62.3109 33.4893 63.731 33.2442 64.9934 32.7542C65.6985 32.4804 66.3599 32.1193 66.9775 31.6708C67.7784 31.0891 68.9255 31.0929 69.5757 31.8389L70.9373 33.4011C71.4809 34.0248 71.4925 34.9624 70.8817 35.5207C69.8085 36.5017 68.547 37.2948 67.0973 37.9001C65.2038 38.6702 63.0297 39.0553 60.5752 39.0553C57.4543 39.0553 54.7192 38.4426 52.3698 37.2174ZM67.5594 22.4099H51.5752C51.7191 21.3581 52.019 20.4129 52.475 19.5744C53.1763 18.3142 54.1231 17.334 55.3153 16.6339C56.5426 15.9337 57.9628 15.5837 59.5758 15.5837C61.1537 15.5837 62.5388 15.9337 63.731 16.6339C64.9583 17.334 65.9226 18.2966 66.6239 19.5219C67.1199 20.3883 67.4317 21.3509 67.5594 22.4099Z" fill="url(#paint0_radial_666_692)"/>
<path d="M39.4167 12.5829C37.7806 11.7496 35.8941 11.3329 33.7571 11.3329C31.1193 11.3329 28.7987 11.9329 26.7953 13.1329C25.5653 13.8697 24.5493 14.7572 23.7472 15.7956C23.1024 14.7328 22.2653 13.8619 21.2359 13.1829C19.3995 11.9496 17.2292 11.3329 14.7249 11.3329C12.5212 11.3329 10.5512 11.7829 8.81491 12.6829C7.68776 13.2786 6.73615 14.0569 5.96008 15.0178V13.2996C5.96008 12.3791 5.21263 11.6329 4.29059 11.6329H1.66949C0.747457 11.6329 0 12.3791 0 13.2996V36.6663C0 37.5867 0.747457 38.3329 1.66949 38.3329H4.5911C5.51314 38.3329 6.26059 37.5867 6.26059 36.6663V24.7829C6.26059 22.9829 6.54441 21.4996 7.11203 20.3329C7.71305 19.1663 8.5311 18.2829 9.56619 17.6829C10.6347 17.0829 11.8534 16.7829 13.2224 16.7829C15.159 16.7829 16.6448 17.3663 17.6799 18.5329C18.715 19.6996 19.2325 21.4663 19.2325 23.8329V36.6663C19.2325 37.5867 19.98 38.3329 20.902 38.3329H23.8236C24.7457 38.3329 25.4931 37.5867 25.4931 36.6663V24.7829C25.4931 22.9829 25.7769 21.4996 26.3446 20.3329C26.9456 19.1663 27.7636 18.2829 28.7987 17.6829C29.8672 17.0829 31.0859 16.7829 32.4549 16.7829C34.3915 16.7829 35.8774 17.3663 36.9125 18.5329C37.9475 19.6996 38.4651 21.4663 38.4651 23.8329V36.6663C38.4651 37.5867 39.2125 38.3329 40.1346 38.3329H43.0562C43.9782 38.3329 44.7257 37.5867 44.7257 36.6663V23.0329C44.7257 20.3329 44.2582 18.1329 43.3233 16.4329C42.3884 14.6996 41.0862 13.4163 39.4167 12.5829Z" fill="#FF1173"/>
<path d="M39.4167 12.5829C37.7806 11.7496 35.8941 11.3329 33.7571 11.3329C31.1193 11.3329 28.7987 11.9329 26.7953 13.1329C25.5653 13.8697 24.5493 14.7572 23.7472 15.7956C23.1024 14.7328 22.2653 13.8619 21.2359 13.1829C19.3995 11.9496 17.2292 11.3329 14.7249 11.3329C12.5212 11.3329 10.5512 11.7829 8.81491 12.6829C7.68776 13.2786 6.73615 14.0569 5.96008 15.0178V13.2996C5.96008 12.3791 5.21263 11.6329 4.29059 11.6329H1.66949C0.747457 11.6329 0 12.3791 0 13.2996V36.6663C0 37.5867 0.747457 38.3329 1.66949 38.3329H4.5911C5.51314 38.3329 6.26059 37.5867 6.26059 36.6663V24.7829C6.26059 22.9829 6.54441 21.4996 7.11203 20.3329C7.71305 19.1663 8.5311 18.2829 9.56619 17.6829C10.6347 17.0829 11.8534 16.7829 13.2224 16.7829C15.159 16.7829 16.6448 17.3663 17.6799 18.5329C18.715 19.6996 19.2325 21.4663 19.2325 23.8329V36.6663C19.2325 37.5867 19.98 38.3329 20.902 38.3329H23.8236C24.7457 38.3329 25.4931 37.5867 25.4931 36.6663V24.7829C25.4931 22.9829 25.7769 21.4996 26.3446 20.3329C26.9456 19.1663 27.7636 18.2829 28.7987 17.6829C29.8672 17.0829 31.0859 16.7829 32.4549 16.7829C34.3915 16.7829 35.8774 17.3663 36.9125 18.5329C37.9475 19.6996 38.4651 21.4663 38.4651 23.8329V36.6663C38.4651 37.5867 39.2125 38.3329 40.1346 38.3329H43.0562C43.9782 38.3329 44.7257 37.5867 44.7257 36.6663V23.0329C44.7257 20.3329 44.2582 18.1329 43.3233 16.4329C42.3884 14.6996 41.0862 13.4163 39.4167 12.5829Z" fill="url(#paint1_radial_666_692)"/>
</g>
</g>
<defs>
<radialGradient id="paint0_radial_666_692" cx="0" cy="0" r="1" gradientUnits="userSpaceOnUse" gradientTransform="translate(50.3185 22.8328) rotate(17.3903) scale(44.6112 291.918)">
<stop stop-color="#00B2FF"/>
<stop offset="0.184109" stop-color="#CC46CF"/>
<stop offset="0.541667" stop-color="#FF1167"/>
<stop offset="0.729167" stop-color="#FF1167"/>
<stop offset="1" stop-color="#0043F1"/>
</radialGradient>
<radialGradient id="paint1_radial_666_692" cx="0" cy="0" r="1" gradientUnits="userSpaceOnUse" gradientTransform="translate(50.3185 22.8328) rotate(17.3903) scale(44.6112 291.918)">
<stop stop-color="#00B2FF"/>
<stop offset="0.184109" stop-color="#CC46CF"/>
<stop offset="0.541667" stop-color="#FF1167"/>
<stop offset="0.729167" stop-color="#FF1167"/>
<stop offset="1" stop-color="#0043F1"/>
</radialGradient>
</defs>
</svg>
