<svg width="78" height="47" viewBox="0 0 78 47" fill="none" xmlns="http://www.w3.org/2000/svg">
<g id="tech week 2">
<g id="&#208;&#161;&#208;&#187;&#208;&#190;&#208;&#185; 2">
<g id="&#208;&#161;&#208;&#187;&#208;&#190;&#208;&#185; 1">
<path id="Vector" d="M77.8334 2.0978V45.737C77.8325 46.0544 77.7047 46.3586 77.478 46.5831C77.2513 46.8075 76.944 46.934 76.6234 46.9349H1.54337C1.22273 46.934 0.915475 46.8075 0.688747 46.5831C0.462018 46.3586 0.334254 46.0544 0.333374 45.737V2.0978C0.334254 1.78037 0.462018 1.47618 0.688747 1.25172C0.915475 1.02726 1.22273 0.900773 1.54337 0.899902L76.6234 0.899902C76.944 0.900773 77.2513 1.02726 77.478 1.25172C77.7047 1.47618 77.8325 1.78037 77.8334 2.0978Z" fill="#9300D0"/>
<path id="Vector_2" d="M13.36 11.8855H8.80005V8.23242H22.1334V11.8855H17.57V23.2738H13.36V11.8855Z" fill="white"/>
<path id="Vector_3" d="M23.9733 8.23242H36.19V11.7898H28.14V14.0668H35.4333V17.3668H28.14V19.7527H36.3V23.2738H23.9667L23.9733 8.23242Z" fill="white"/>
<path id="Vector_4" d="M37.9268 15.7497C37.9268 11.3673 41.3368 7.92871 45.9268 7.92871C49.0301 7.92871 50.9601 9.24871 52.3068 11.1099L49.2268 13.4727C48.3568 12.4002 47.3368 11.7336 45.8934 11.7336C43.7668 11.7336 42.2701 13.5156 42.2701 15.7497C42.2701 17.9838 43.7668 19.7691 45.8934 19.7691C47.4768 19.7691 48.4101 19.0365 49.3234 17.9409L52.4901 20.1783C51.0568 22.1319 49.1268 23.5707 45.7634 23.5707C44.7248 23.5856 43.6938 23.393 42.732 23.0045C41.7702 22.6159 40.8975 22.0393 40.1659 21.3092C39.4344 20.5792 38.8591 19.7105 38.4743 18.7553C38.0896 17.8001 37.9034 16.7778 37.9268 15.7497Z" fill="white"/>
<path id="Vector_5" d="M54.2933 8.23242H58.5033V13.8622H63.9067V8.23242H68.1167V23.2738H63.9067V17.5582H58.5033V23.2738H54.2933V8.23242Z" fill="white"/>
<path id="Vector_6" d="M8.82007 25.917H12.9301L15.3734 33.9525L18.0767 25.8774H21.4101L24.1134 33.9525L26.5601 25.917H30.6001L25.9101 39.9024H22.5267L19.7001 31.9197L16.8967 39.9123H13.5101L8.82007 25.917Z" fill="#FDFA00"/>
<path id="Vector_7" d="M31.14 25.917H42.42V29.1906H35V31.2927H41.73V34.3287H35V36.5397H42.5333V39.8133H31.14V25.917Z" fill="#FDFA00"/>
<path id="Vector_8" d="M43.5 25.917H54.78V29.1906H47.3333V31.2927H54.0667V34.3287H47.3333V36.5397H54.8667V39.8133H43.5V25.917Z" fill="#FDFA00"/>
<path id="Vector_9" d="M55.86 25.917H59.75V31.5501L64.5767 25.917H69.1833L63.8767 31.89L69.3667 39.81H64.7L61.1733 34.6521L59.75 36.2097V39.8001H55.86V25.917Z" fill="#FDFA00"/>
</g>
</g>
</g>
</svg>
