<svg width="390" height="500" viewBox="0 0 390 500" fill="none" xmlns="http://www.w3.org/2000/svg">
<path d="M587.979 1255.06C509.711 1213.96 428.255 1152.12 377.565 1083.06C466.85 1114.43 559.072 1107.74 639.991 1075.34C540.672 1022.76 452.518 954.755 379.99 874.784C477.291 929.183 593.09 949.245 703.379 930.812C577.103 865.185 466.958 765.145 392.598 653.421C481.654 718.385 598.311 751.391 703.868 742.948C580.604 691.147 472.357 609.166 387.432 513.289C452.925 547.05 529.253 558.812 601.841 546.327C499.628 511.217 420.874 450.728 362.389 367.272C416.18 413.279 481.76 427.587 551.6 426.21C488.718 386.935 432.444 328.86 385.396 275.708C420.468 290.756 452.687 297.381 489.715 306.344C440.316 264.24 398.392 215.818 365.468 162.843C388.758 195.09 423.476 209.51 463.628 222.267C412.743 182.259 376.338 119.775 354.23 63.3615C324.739 111.156 277.029 160.969 221.294 184.377C262.604 184.268 298.497 180.889 326.092 156.686C286.159 198.145 237.804 232.613 183.341 258.441C220.798 261.124 253.257 264.612 289.777 260.758C235.86 298.123 172.292 337.461 104.984 356.38C172.982 379.309 239.211 385.609 298.594 357.297C229.145 420.751 143.041 455.463 38.0297 458.173C105.241 491.602 181.336 505.483 252.339 492.166C154.999 559.546 37.1429 606.175 -90.999 618.667C11.0613 659.572 129.725 663.36 226.417 627.438C135.056 715.407 14.9767 776.286 -118.506 802.307C-18.0393 852.439 100.842 871.864 205.963 847.574C121.693 904.611 27.6737 941.436 -77.8412 963.108C-3.7316 1019.57 85.0591 1054.74 177.108 1051.72C117.075 1103.47 28.5319 1138.68 -54.0437 1154.68C35.4757 1202.22 175.407 1229.34 267.321 1201.49C267.125 1201.46 418.476 1287.27 587.979 1255.06Z" fill="#000125"/>
<path d="M510.793 1101.89C423.049 1050.22 303.962 880.864 303.962 880.864C380.104 943.588 485.117 969.308 574.758 945.991C391.669 853.983 313.852 717.477 313.852 717.477C390.146 760.292 477.37 782.107 565.388 780.386C471.972 728.595 392.519 656.943 333.554 571.316C393.498 606.101 463.633 621.423 532.963 614.879C459.254 568.99 391.924 514.513 332.623 452.781C378.281 480.724 438.092 494.528 489.921 494.125C431.98 453.022 336.153 347.506 336.153 347.506C366.401 373.569 405.176 389.901 444.103 389.023C407.054 352.025 340.898 263.931 340.898 263.931C362.882 280.339 389.819 289.658 417.619 290.471C384.353 262.659 345.382 190.143 345.382 190.143C367.28 205.227 392.96 214.599 419.752 217.286C385.191 174.706 363.84 115.507 354.23 63.0509C337.151 110.286 304.72 161.43 263.798 192.902C289.397 198.599 316.046 197.386 340.655 189.404C340.655 189.404 269.771 252.955 232.77 269.78C258.525 277.069 309.755 272.461 333.234 262.732C333.234 262.732 232.07 344.388 190.368 369.029C208.702 375.085 241.623 371.98 269.736 367.01C288.978 365.782 307.813 354.089 324.81 345.777C324.81 345.777 214.611 419.079 151.479 441.252C201.951 457.65 262.479 462.662 311.458 449.516C243.198 491.572 168.59 523.931 89.9837 545.574C153.4 573.127 224.44 579.885 291.56 564.75C219.922 630.293 130.366 676.025 32.3931 697.094C114.467 725.727 203.167 731.401 287.639 713.422C287.639 713.422 170.481 840.556 -3.21455 855.667C80.4926 906.087 186.968 913.435 271.049 875.761C271.049 875.761 127.887 1004.12 34.1128 1027.41C104.946 1051.31 185.153 1056.75 254.611 1037.73C254.611 1037.73 122.932 1124.82 42.811 1129.35C104.362 1180.14 184.943 1206.05 261.414 1200.51C335.094 1229.66 417.784 1229.14 485.935 1198.63C408.358 1169.44 293.852 1043.86 293.852 1043.86C358.778 1083.09 434.358 1103.31 510.793 1101.89Z" fill="url(#paint0_linear_298_1083)"/>
<path d="M352.21 72.0581C364.826 138.985 389.985 203.163 426.423 261.367C399.149 249.128 372.736 235.12 347.361 219.439C351.417 273.554 367.202 326.304 393.672 374.201C369.79 360.003 348.433 342.092 330.455 321.183C348.945 414.76 392.458 505.003 453.929 584.573C396.175 563.762 346.406 525.891 311.605 476.274C328.971 553.01 364.534 624.842 415.431 685.99C372.916 674.624 332.264 657.327 294.739 634.637C318.799 702.171 358.842 762.084 410.514 814.357C367.766 809.296 326.748 794.542 290.752 771.281C339.332 858.426 410.26 935.543 496.18 987.293C419.104 980.584 344.681 955.833 279.238 915.145C300.409 991.288 333.704 1066.5 371.385 1138.33C328.844 1115.5 291.877 1083.89 263.085 1045.73C286.306 1108.19 315.488 1166.75 357.172 1219.94C307.916 1218.86 260.498 1200.83 223.297 1169.05L352.21 72.0581Z" fill="url(#paint1_linear_298_1083)"/>
<path d="M454.272 364.292C423.273 348.796 397.073 325.16 378.478 295.914C360.16 267.234 350.158 234.034 349.583 200.008C341.806 206.14 332.962 214.204 329.629 223.739C320.281 251.795 322.28 282.395 335.2 308.997C348.444 336.389 371.471 357.824 399.74 369.077C408.616 372.367 418.113 373.644 427.544 372.817C436.975 371.989 446.104 369.077 454.272 364.292Z" fill="url(#paint2_linear_298_1083)"/>
<path d="M382.584 157.453C387.022 175.815 395.563 192.932 407.565 207.519C419.568 222.106 434.719 233.784 451.882 241.675C435.084 243.295 418.228 239.232 404.013 230.135C389.738 220.399 378.946 206.358 373.211 190.058C370.68 183.515 369.831 176.442 370.742 169.485C371.927 162.751 376.324 160 382.584 157.453Z" fill="url(#paint3_linear_298_1083)"/>
<path d="M385.403 135.267C372.873 195.676 392.727 264.894 437.16 314.199C417.469 316.1 398.201 305.154 383.002 291.009C358.957 268.606 340.507 238.614 338.164 207.086C337.328 191.638 341.464 176.329 349.966 163.403C358.468 150.478 370.887 140.617 385.403 135.267Z" fill="url(#paint4_linear_298_1083)"/>
<path d="M354.229 62.8954C374.394 116.402 412.437 169.34 463.859 194.347C445.182 194.001 425.826 195.433 407.752 189.108C389.678 182.783 372.629 171.171 363.301 154.674C355.699 141.473 353.893 126.456 352.088 111.919C350.314 98.6925 352.261 76.0949 354.229 62.8954Z" fill="url(#paint5_linear_298_1083)"/>
<path d="M330.401 324.364C376.77 380.831 437.138 424.15 505.48 449.995C462.911 456.688 415.773 452.074 378.857 428.647C341.94 405.22 322.441 363.832 330.401 324.364Z" fill="url(#paint6_linear_298_1083)"/>
<path d="M469.765 482.344C449.292 476.278 432.675 459.928 418.616 443.008C379.531 395.741 353.446 339.099 342.936 278.672C331.579 290.313 323.257 304.567 318.703 320.179C314.148 335.792 313.5 352.284 316.816 368.206C324.587 402.58 345.059 432.75 374.131 452.67C403.135 472.675 436.35 484.348 469.765 482.344Z" fill="url(#paint7_linear_298_1083)"/>
<path d="M393.495 619.917C343.113 555.699 313.908 477.425 309.912 395.9C288.772 433.85 280.731 476.537 296.712 520.07C312.693 563.604 350.995 601.944 393.495 619.917Z" fill="url(#paint8_linear_298_1083)"/>
<path d="M266.407 495.688C256.199 522.931 240.592 547.83 220.522 568.892C200.452 589.953 176.334 606.742 149.615 618.251C122.094 629.525 92.6145 635.244 62.8742 635.08C33.1338 634.916 3.71955 628.871 -23.6753 617.293C81.7743 598.564 184.901 561.709 266.407 495.688Z" fill="url(#paint9_linear_298_1083)"/>
<path d="M314.302 281.451C302.242 302.507 285.743 320.686 265.951 334.725C246.158 348.763 223.547 358.325 199.687 362.745C240.074 335.033 274.369 308.793 314.302 281.451Z" fill="url(#paint10_linear_298_1083)"/>
<path d="M342.283 192.143C332.339 214.301 319.718 235.821 300.922 251.173C282.125 266.526 256.243 275.041 231.41 268.954C269.469 249.65 309.6 218.503 342.283 192.143Z" fill="url(#paint11_linear_298_1083)"/>
<path d="M326.117 102.347C319.082 122.221 308.284 145.67 291.405 158.302C274.527 170.935 248.385 180.412 227.334 181.559C260.745 160.397 296.762 136.672 326.117 102.347Z" fill="url(#paint12_linear_298_1083)"/>
<path d="M290.624 362.818C285.002 406.864 255.896 445.953 216.109 462.507C176.323 479.061 126.983 472.306 90.6611 445.067C126.244 437.803 165.945 428.543 199.539 415.746C233.133 402.948 264.339 386.76 290.624 362.818Z" fill="url(#paint13_linear_298_1083)"/>
<path opacity="0.2" d="M282.196 308.601C280.522 312.806 280.133 317.412 281.077 321.839C282.022 326.265 284.257 330.311 287.502 333.467C290.746 336.622 294.854 338.744 299.304 339.565C303.755 340.385 308.349 339.868 312.506 338.077C316.662 336.287 320.194 333.303 322.655 329.505C325.116 325.707 326.395 321.264 326.331 316.739C326.267 312.214 324.862 307.809 322.294 304.082C319.726 300.356 316.11 297.474 311.905 295.803C306.268 293.562 299.972 293.651 294.401 296.051C288.83 298.451 284.44 302.965 282.196 308.601Z" fill="#FF123A"/>
<path d="M308.231 295.854C307.921 296.286 307.714 296.782 307.624 297.305C307.535 297.829 307.566 298.366 307.714 298.876C307.863 299.386 308.126 299.855 308.484 300.248C308.841 300.641 309.283 300.948 309.776 301.145C310.27 301.342 310.801 301.424 311.331 301.385C311.861 301.345 312.375 301.186 312.834 300.919C313.293 300.652 313.685 300.283 313.98 299.842C314.276 299.401 314.467 298.898 314.54 298.372C314.868 297.939 315.092 297.437 315.194 296.904C315.297 296.37 315.274 295.821 315.129 295.298C314.984 294.774 314.72 294.292 314.357 293.887C313.995 293.483 313.544 293.168 313.04 292.967C312.535 292.766 311.992 292.684 311.45 292.727C310.909 292.771 310.385 292.939 309.92 293.219C309.454 293.498 309.06 293.881 308.767 294.339C308.474 294.796 308.29 295.314 308.231 295.854Z" fill="#162B1D"/>
<path d="M316.492 299.119L313.712 306.105L303.544 302.059L306.324 295.072L316.492 299.119Z" fill="#122417"/>
<path d="M293.437 309.757C290.94 316.014 297.686 326.212 299.53 326.951C301.375 327.69 313.28 324.89 315.759 318.65C318.238 312.41 314.699 306.741 308.545 304.284C302.392 301.827 295.935 303.501 293.437 309.757Z" fill="#FF123A"/>
<path d="M307.569 312.511C307.294 313.195 307.228 313.945 307.379 314.666C307.53 315.388 307.892 316.048 308.419 316.563C308.946 317.079 309.614 317.426 310.338 317.561C311.063 317.697 311.811 317.614 312.489 317.323C313.166 317.033 313.742 316.548 314.143 315.93C314.545 315.312 314.754 314.588 314.744 313.851C314.734 313.114 314.505 312.397 314.087 311.79C313.669 311.183 313.08 310.714 312.395 310.442C311.48 310.08 310.459 310.094 309.555 310.481C308.651 310.869 307.937 311.599 307.569 312.511Z" fill="white"/>
<path d="M305.525 319.563C305.354 320.021 305.364 320.527 305.555 320.978C305.746 321.428 306.102 321.788 306.55 321.984C306.896 322.13 307.278 322.169 307.646 322.097C308.014 322.025 308.353 321.844 308.618 321.579C308.883 321.313 309.063 320.974 309.134 320.606C309.206 320.238 309.166 319.856 309.02 319.511C308.873 319.165 308.627 318.871 308.313 318.666C307.998 318.461 307.63 318.355 307.255 318.36C306.88 318.366 306.515 318.483 306.206 318.698C305.898 318.912 305.661 319.213 305.525 319.563Z" fill="white"/>
<path opacity="0.3" d="M311.002 307.617C304.073 304.859 296.797 306.74 294.017 313.756C293.66 314.666 293.459 315.631 293.423 316.608C292.738 314.403 292.76 312.04 293.485 309.848C295.982 303.591 302.422 301.934 308.612 304.358C311.538 305.445 313.988 307.528 315.531 310.242C314.166 309.138 312.638 308.253 311.002 307.617Z" fill="black"/>
<path d="M315.286 306.665L315.222 306.827C314.938 307.54 314.13 307.888 313.417 307.604L302.718 303.347C302.005 303.063 301.657 302.255 301.941 301.542L302.005 301.381C302.289 300.668 303.097 300.32 303.81 300.603L314.508 304.86C315.222 305.144 315.57 305.952 315.286 306.665Z" fill="#162B1D"/>
<path opacity="0.2" d="M340.755 445.829C331.48 443.306 326.007 433.742 328.53 424.467C331.053 415.191 340.618 409.718 349.893 412.241C359.168 414.764 364.642 424.329 362.118 433.604C359.595 442.879 350.031 448.353 340.755 445.829Z" fill="#EACD00"/>
<path d="M338.732 413.861C338.844 414.643 339.254 415.352 339.876 415.838C340.499 416.325 341.285 416.552 342.071 416.471C342.797 416.476 343.505 416.255 344.098 415.837C344.691 415.419 345.138 414.826 345.376 414.141C345.615 413.456 345.633 412.714 345.429 412.018C345.224 411.322 344.807 410.708 344.236 410.262C343.664 409.815 342.968 409.558 342.243 409.528C341.518 409.497 340.802 409.694 340.196 410.091C339.589 410.488 339.121 411.065 338.859 411.741C338.596 412.417 338.552 413.158 338.732 413.861Z" fill="#162B1D"/>
<path d="M345.255 412.19L346.689 417.727L338.63 419.814L337.196 414.278L345.255 412.19Z" fill="#122417"/>
<path d="M335.891 429.051C337.167 433.996 345.893 437.23 347.343 436.862C348.793 436.493 354.865 429.42 353.57 424.471C352.275 419.521 347.602 417.643 342.699 418.911C337.796 420.179 334.602 424.084 335.891 429.051Z" fill="#EACD00"/>
<path d="M345.805 424.393C345.936 424.937 346.226 425.43 346.639 425.809C347.052 426.187 347.568 426.434 348.122 426.517C348.676 426.6 349.242 426.516 349.748 426.275C350.253 426.035 350.676 425.649 350.961 425.167C351.246 424.685 351.381 424.129 351.348 423.57C351.315 423.01 351.115 422.474 350.776 422.029C350.436 421.584 349.971 421.25 349.441 421.071C348.91 420.891 348.338 420.874 347.798 421.022C347.093 421.215 346.491 421.675 346.119 422.304C345.747 422.933 345.634 423.682 345.805 424.393Z" fill="white"/>
<path d="M347.726 429.629C347.822 429.998 348.062 430.313 348.391 430.506C348.72 430.698 349.112 430.752 349.481 430.655C349.85 430.558 350.165 430.319 350.357 429.989C350.55 429.66 350.603 429.268 350.507 428.899C350.406 428.549 350.176 428.251 349.864 428.064C349.551 427.877 349.179 427.816 348.824 427.894C348.637 427.933 348.459 428.01 348.302 428.119C348.145 428.229 348.011 428.368 347.909 428.53C347.806 428.692 347.738 428.872 347.706 429.061C347.675 429.25 347.681 429.443 347.726 429.629Z" fill="white"/>
<path opacity="0.16" d="M345.716 419.83C340.205 421.246 336.602 425.645 338.04 431.22C338.228 431.939 338.539 432.619 338.96 433.231C337.511 432.207 336.434 430.74 335.891 429.051C334.601 424.083 337.819 420.166 342.699 418.911C344.979 418.238 347.427 418.417 349.585 419.415C348.282 419.353 346.977 419.493 345.716 419.83Z" fill="black"/>
<path d="M347.91 417.322L347.943 417.45C348.089 418.015 347.75 418.592 347.185 418.738L338.706 420.934C338.141 421.08 337.564 420.741 337.417 420.176L337.384 420.048C337.238 419.483 337.577 418.906 338.143 418.759L346.622 416.563C347.187 416.417 347.764 416.756 347.91 417.322Z" fill="#162B1D"/>
<path opacity="0.2" d="M244.818 534.841C238.988 527.199 240.457 516.278 248.099 510.448C255.741 504.617 266.663 506.086 272.493 513.728C278.323 521.37 276.854 532.292 269.212 538.122C261.57 543.952 250.648 542.484 244.818 534.841Z" fill="#EACD00"/>
<path opacity="0.2" d="M249.409 209.176C239.256 201.943 236.888 187.849 244.12 177.696C251.353 167.542 265.447 165.174 275.6 172.407C285.753 179.639 288.121 193.733 280.889 203.887C273.657 214.04 259.563 216.408 249.409 209.176Z" fill="#3AD900"/>
<path d="M262.304 173.993C262.36 174.498 262.556 174.977 262.87 175.375C263.184 175.774 263.604 176.077 264.082 176.249C264.559 176.421 265.076 176.456 265.572 176.35C266.068 176.243 266.525 176 266.89 175.647C267.255 175.294 267.514 174.846 267.637 174.354C267.761 173.861 267.743 173.344 267.587 172.861C267.432 172.378 267.144 171.948 266.756 171.62C266.368 171.293 265.896 171.08 265.394 171.007C264.593 171.009 263.823 171.321 263.247 171.877C262.671 172.434 262.333 173.193 262.304 173.993Z" fill="#162B1D"/>
<path d="M269.057 175.027L268.214 180.76L259.871 179.533L260.713 173.801L269.057 175.027Z" fill="#122417"/>
<path d="M253.68 187.038C252.922 192.178 259.798 198.631 261.29 198.848C262.782 199.066 271.233 194.866 271.991 189.726C272.748 184.585 269.079 181.007 264.034 180.27C258.988 179.533 254.43 181.915 253.68 187.038Z" fill="#3AD900"/>
<path d="M264.733 186.658C264.647 187.401 264.856 188.148 265.314 188.74C265.771 189.332 266.442 189.721 267.183 189.825C267.554 189.88 267.932 189.861 268.296 189.77C268.66 189.679 269.002 189.517 269.303 189.293C269.604 189.07 269.858 188.789 270.051 188.468C270.243 188.146 270.371 187.789 270.426 187.418C270.481 187.047 270.462 186.669 270.371 186.306C270.279 185.942 270.117 185.6 269.894 185.299C269.67 184.997 269.39 184.743 269.068 184.551C268.746 184.358 268.39 184.231 268.019 184.176C267.639 184.117 267.252 184.135 266.879 184.229C266.507 184.322 266.157 184.49 265.851 184.721C265.544 184.953 265.287 185.244 265.095 185.576C264.903 185.909 264.78 186.277 264.733 186.658Z" fill="white"/>
<path d="M264.485 192.252C264.434 192.635 264.535 193.022 264.766 193.331C264.997 193.64 265.341 193.846 265.722 193.904C265.913 193.935 266.107 193.927 266.294 193.881C266.481 193.835 266.657 193.752 266.811 193.636C266.965 193.521 267.094 193.376 267.191 193.209C267.288 193.042 267.35 192.858 267.374 192.667C267.429 192.284 267.33 191.895 267.098 191.585C266.866 191.275 266.52 191.07 266.137 191.015C265.754 190.96 265.365 191.06 265.055 191.292C264.745 191.524 264.54 191.869 264.485 192.252Z" fill="white"/>
<path opacity="0.16" d="M266.48 182.307C260.788 181.474 255.679 184.157 254.78 189.903C254.671 190.648 254.691 191.406 254.839 192.144C253.894 190.609 253.469 188.81 253.628 187.015C254.378 181.892 258.918 179.502 263.981 180.247C266.37 180.528 268.58 181.656 270.208 183.426C269.03 182.865 267.773 182.488 266.48 182.307Z" fill="black"/>
<path d="M269.484 180.882L269.464 181.014C269.378 181.599 268.834 182.004 268.249 181.918L259.47 180.627C258.885 180.541 258.48 179.997 258.566 179.412L258.585 179.279C258.672 178.694 259.216 178.29 259.801 178.376L268.58 179.666C269.165 179.752 269.57 180.296 269.484 180.882Z" fill="#162B1D"/>
<path opacity="0.2" d="M170.759 511.968C158.359 513.245 147.271 504.227 145.994 491.827C144.718 479.427 153.735 468.339 166.135 467.062C178.536 465.785 189.623 474.803 190.9 487.203C192.177 499.604 183.16 510.691 170.759 511.968Z" fill="#3AD900"/>
<path d="M157.201 477.036C157.576 477.378 158.039 477.607 158.539 477.699C159.038 477.791 159.553 477.741 160.025 477.555C160.498 477.369 160.908 477.054 161.211 476.646C161.513 476.238 161.695 475.754 161.736 475.248C161.777 474.742 161.676 474.235 161.443 473.783C161.21 473.332 160.856 472.955 160.42 472.696C159.984 472.436 159.483 472.303 158.976 472.313C158.468 472.324 157.974 472.476 157.548 472.753C156.948 473.283 156.576 474.025 156.511 474.824C156.446 475.623 156.693 476.415 157.201 477.036Z" fill="#162B1D"/>
<path d="M162.954 473.351L166.108 478.212L159.033 482.803L155.879 477.942L162.954 473.351Z" fill="#122417"/>
<path d="M159.343 492.526C162.169 496.886 171.594 497.188 172.858 496.366C174.122 495.544 177.692 486.809 174.866 482.449C172.039 478.089 166.92 477.826 162.645 480.606C158.371 483.385 156.522 488.184 159.343 492.526Z" fill="#3AD900"/>
<path d="M167.39 484.94C167.817 485.554 168.467 485.977 169.201 486.119C169.936 486.261 170.697 486.111 171.322 485.699C171.636 485.496 171.908 485.232 172.121 484.923C172.334 484.614 172.483 484.267 172.562 483.9C172.64 483.533 172.646 483.155 172.578 482.786C172.51 482.417 172.37 482.065 172.166 481.75C171.962 481.436 171.699 481.164 171.39 480.951C171.081 480.739 170.733 480.589 170.367 480.51C170 480.432 169.621 480.426 169.253 480.494C168.884 480.562 168.532 480.702 168.217 480.906C167.894 481.112 167.615 481.382 167.397 481.698C167.179 482.015 167.027 482.371 166.95 482.748C166.873 483.124 166.872 483.512 166.947 483.888C167.023 484.265 167.173 484.622 167.39 484.94Z" fill="white"/>
<path d="M170.9 489.304C171.114 489.625 171.445 489.849 171.823 489.928C172.201 490.007 172.595 489.935 172.92 489.727C173.083 489.624 173.223 489.49 173.333 489.332C173.443 489.174 173.52 488.995 173.56 488.806C173.599 488.618 173.6 488.423 173.563 488.234C173.526 488.046 173.451 487.866 173.343 487.707C173.131 487.383 172.799 487.156 172.42 487.077C172.041 486.998 171.647 487.072 171.323 487.284C170.999 487.496 170.772 487.827 170.693 488.206C170.614 488.585 170.688 488.98 170.9 489.304Z" fill="white"/>
<path opacity="0.16" d="M165.828 480.519C161.004 483.654 158.94 489.042 162.061 493.951C162.471 494.582 162.987 495.138 163.585 495.594C161.862 495.066 160.355 493.996 159.288 492.543C156.467 488.201 158.298 483.408 162.591 480.623C164.57 479.256 166.974 478.643 169.366 478.896C168.111 479.254 166.918 479.801 165.828 480.519Z" fill="black"/>
<path d="M167.141 477.465L167.214 477.577C167.536 478.074 167.395 478.737 166.899 479.059L159.455 483.889C158.959 484.211 158.296 484.07 157.974 483.573L157.901 483.461C157.579 482.965 157.72 482.302 158.216 481.98L165.66 477.15C166.156 476.828 166.819 476.969 167.141 477.465Z" fill="#162B1D"/>
<path opacity="0.2" d="M376.586 317.315C364.343 314.966 356.323 303.137 358.672 290.894C361.021 278.652 372.849 270.631 385.092 272.98C397.335 275.329 405.355 287.158 403.006 299.4C400.657 311.643 388.829 319.663 376.586 317.315Z" fill="#3AD900"/>
<path d="M373.664 279.957C373.924 280.393 374.302 280.746 374.754 280.978C375.205 281.21 375.713 281.31 376.219 281.268C376.725 281.226 377.209 281.043 377.616 280.739C378.023 280.436 378.337 280.024 378.522 279.552C378.707 279.079 378.756 278.564 378.663 278.065C378.57 277.566 378.339 277.103 377.996 276.728C377.653 276.354 377.212 276.083 376.724 275.946C376.235 275.81 375.717 275.813 375.23 275.956C374.502 276.291 373.932 276.895 373.64 277.641C373.348 278.387 373.357 279.217 373.664 279.957Z" fill="#162B1D"/>
<path d="M380.234 278.086L381.854 283.649L373.757 286.008L372.137 280.444L380.234 278.086Z" fill="#122417"/>
<path d="M371.253 295.408C372.704 300.397 381.642 303.401 383.089 302.978C384.537 302.555 390.472 295.219 389.021 290.229C387.57 285.24 382.743 283.513 377.849 284.944C372.955 286.374 369.802 290.438 371.253 295.408Z" fill="#3AD900"/>
<path d="M381.144 290.461C381.376 291.172 381.877 291.765 382.539 292.112C383.202 292.46 383.974 292.535 384.691 292.321C385.051 292.217 385.387 292.042 385.68 291.808C385.972 291.573 386.216 291.284 386.397 290.955C386.577 290.626 386.692 290.265 386.733 289.893C386.774 289.52 386.741 289.143 386.637 288.783C386.532 288.423 386.358 288.087 386.124 287.794C385.889 287.501 385.599 287.257 385.271 287.077C384.942 286.896 384.581 286.782 384.209 286.741C383.836 286.699 383.459 286.732 383.099 286.836C382.729 286.941 382.384 287.119 382.085 287.359C381.785 287.599 381.537 287.897 381.354 288.235C381.172 288.573 381.06 288.944 381.023 289.327C380.987 289.709 381.028 290.095 381.144 290.461Z" fill="white"/>
<path d="M383.248 295.651C383.361 296.02 383.614 296.331 383.953 296.515C384.292 296.7 384.69 296.744 385.061 296.638C385.247 296.587 385.42 296.499 385.571 296.379C385.722 296.259 385.847 296.11 385.939 295.941C386.031 295.772 386.088 295.586 386.107 295.395C386.126 295.203 386.105 295.009 386.048 294.826C385.938 294.454 385.686 294.142 385.346 293.957C385.006 293.772 384.606 293.729 384.235 293.839C383.864 293.948 383.552 294.201 383.366 294.541C383.181 294.881 383.139 295.28 383.248 295.651Z" fill="white"/>
<path opacity="0.16" d="M380.922 285.778C375.399 287.39 371.871 291.956 373.446 297.556C373.657 298.278 373.991 298.959 374.432 299.568C372.934 298.566 371.799 297.108 371.196 295.409C369.745 290.439 372.879 286.376 377.792 284.945C380.081 284.206 382.56 284.312 384.777 285.243C383.472 285.224 382.172 285.404 380.922 285.778Z" fill="black"/>
<path d="M383.059 283.231L383.097 283.36C383.262 283.928 382.936 284.522 382.368 284.688L373.849 287.169C373.281 287.334 372.686 287.008 372.521 286.44L372.483 286.312C372.318 285.744 372.644 285.15 373.212 284.984L381.731 282.503C382.299 282.337 382.894 282.664 383.059 283.231Z" fill="#162B1D"/>
<path opacity="0.2" d="M139.824 391.954C131.539 384.356 130.983 371.481 138.58 363.196C146.178 354.911 159.054 354.355 167.338 361.952C175.623 369.55 176.18 382.426 168.582 390.711C160.984 398.995 148.109 399.552 139.824 391.954Z" fill="#EACD00"/>
<path d="M154.871 357.648C154.568 358.521 154.613 359.477 154.999 360.317C155.385 361.156 156.081 361.814 156.941 362.152C157.692 362.547 158.547 362.696 159.387 362.58C160.227 362.464 161.01 362.087 161.625 361.504C162.241 360.92 162.658 360.159 162.819 359.326C162.98 358.493 162.875 357.631 162.521 356.86C162.167 356.09 161.581 355.449 160.844 355.029C160.108 354.608 159.258 354.429 158.414 354.516C157.571 354.603 156.775 354.951 156.14 355.513C155.505 356.075 155.061 356.821 154.871 357.648Z" fill="#162B1D"/>
<path d="M162.546 359.411L161.066 365.935L151.572 363.78L153.052 357.257L162.546 359.411Z" fill="#122417"/>
<path d="M143.77 371.909C142.444 377.731 149.776 385.774 151.48 386.169C153.185 386.564 163.289 382.47 164.599 376.633C165.909 370.795 162.06 366.336 156.284 365.024C150.509 363.711 145.095 366.055 143.77 371.909Z" fill="#EACD00"/>
<path d="M156.571 372.386C156.415 373.022 156.453 373.691 156.679 374.305C156.904 374.92 157.309 375.453 157.84 375.837C158.371 376.22 159.004 376.437 159.658 376.458C160.313 376.479 160.959 376.305 161.514 375.957C162.069 375.609 162.507 375.103 162.772 374.504C163.038 373.906 163.119 373.242 163.005 372.597C162.891 371.952 162.586 371.356 162.131 370.885C161.676 370.414 161.091 370.089 160.45 369.953C159.614 369.775 158.742 369.93 158.018 370.384C157.294 370.838 156.775 371.556 156.571 372.386Z" fill="white"/>
<path d="M155.758 378.859C155.661 379.294 155.74 379.75 155.979 380.126C156.218 380.503 156.597 380.769 157.032 380.866C157.467 380.963 157.923 380.884 158.3 380.645C158.676 380.406 158.942 380.027 159.039 379.592C159.122 379.174 159.044 378.741 158.819 378.379C158.595 378.018 158.241 377.755 157.83 377.644C157.614 377.585 157.389 377.569 157.167 377.599C156.945 377.628 156.731 377.701 156.538 377.815C156.345 377.928 156.176 378.078 156.042 378.258C155.908 378.437 155.812 378.641 155.758 378.859Z" fill="white"/>
<path opacity="0.16" d="M158.927 367.597C152.441 366.112 146.336 368.751 144.839 375.316C144.649 376.163 144.607 377.037 144.716 377.899C143.761 376.057 143.428 373.955 143.77 371.909C145.095 366.055 150.54 363.71 156.284 365.024C159.015 365.548 161.462 367.047 163.17 369.242C161.848 368.478 160.417 367.923 158.927 367.597Z" fill="black"/>
<path d="M162.552 366.168L162.518 366.319C162.367 366.985 161.704 367.402 161.039 367.251L151.049 364.984C150.383 364.833 149.966 364.171 150.117 363.505L150.151 363.354C150.303 362.688 150.965 362.271 151.631 362.422L161.62 364.689C162.286 364.84 162.703 365.502 162.552 366.168Z" fill="#162B1D"/>
<path opacity="0.2" d="M336.028 160.924C337.019 163.894 338.869 166.503 341.343 168.421C343.817 170.339 346.804 171.481 349.927 171.701C353.049 171.922 356.168 171.211 358.886 169.659C361.605 168.107 363.803 165.784 365.201 162.983C366.599 160.182 367.135 157.029 366.742 153.923C366.348 150.818 365.042 147.898 362.989 145.535C360.936 143.172 358.228 141.47 355.208 140.646C352.188 139.821 348.991 139.911 346.022 140.904C342.043 142.235 338.754 145.091 336.88 148.845C335.006 152.599 334.7 156.944 336.028 160.924Z" fill="#FF123A"/>
<path d="M344.103 142.57C344.132 142.937 344.243 143.291 344.43 143.608C344.616 143.925 344.872 144.195 345.178 144.398C345.484 144.601 345.833 144.732 346.197 144.78C346.561 144.829 346.932 144.794 347.28 144.678C347.629 144.561 347.946 144.368 348.209 144.111C348.472 143.854 348.672 143.54 348.796 143.194C348.919 142.848 348.962 142.478 348.921 142.113C348.881 141.748 348.757 141.397 348.561 141.086C348.541 140.711 348.436 140.346 348.252 140.018C348.068 139.691 347.811 139.41 347.501 139.198C347.191 138.987 346.836 138.849 346.464 138.797C346.092 138.745 345.713 138.78 345.357 138.899C345 139.017 344.676 139.217 344.41 139.481C344.143 139.746 343.941 140.068 343.82 140.424C343.698 140.779 343.661 141.158 343.71 141.53C343.759 141.902 343.893 142.258 344.103 142.57Z" fill="#162B1D"/>
<path d="M349.926 140.61L351.574 145.543L344.394 147.941L342.746 143.008L349.926 140.61Z" fill="#122417"/>
<path d="M342.486 156.52C343.957 160.942 352.074 163.322 353.378 162.89C354.682 162.458 359.727 155.666 358.253 151.262C356.779 146.857 352.379 145.44 348.03 146.886C343.681 148.332 341.015 152.098 342.486 156.52Z" fill="#FF123A"/>
<path d="M351.185 151.671C351.344 152.155 351.644 152.581 352.046 152.895C352.447 153.209 352.933 153.396 353.442 153.434C353.95 153.471 354.458 153.357 354.902 153.105C355.345 152.853 355.704 152.475 355.932 152.02C356.161 151.564 356.249 151.051 356.185 150.545C356.122 150.039 355.909 149.563 355.575 149.178C355.241 148.793 354.8 148.516 354.308 148.382C353.817 148.247 353.296 148.262 352.813 148.424C352.167 148.641 351.634 149.103 351.329 149.712C351.024 150.32 350.972 151.024 351.185 151.671Z" fill="white"/>
<path d="M353.251 156.31C353.364 156.629 353.596 156.892 353.898 157.045C354.199 157.198 354.548 157.229 354.873 157.132C355.12 157.055 355.34 156.906 355.502 156.703C355.665 156.501 355.763 156.255 355.785 155.996C355.806 155.737 355.75 155.478 355.624 155.251C355.497 155.024 355.306 154.841 355.074 154.723C354.843 154.606 354.582 154.56 354.324 154.592C354.066 154.624 353.824 154.732 353.628 154.903C353.432 155.073 353.292 155.298 353.225 155.549C353.157 155.799 353.166 156.065 353.251 156.31Z" fill="white"/>
<path opacity="0.3" d="M350.816 147.552C345.923 149.186 342.916 153.426 344.576 158.375C344.794 159.016 345.118 159.615 345.535 160.148C344.189 159.288 343.146 158.029 342.552 156.547C341.08 152.125 343.745 148.376 348.098 146.895C350.13 146.164 352.355 146.173 354.381 146.919C353.167 146.945 351.965 147.158 350.816 147.552Z" fill="black"/>
<path d="M352.656 145.138L352.694 145.252C352.862 145.755 352.59 146.3 352.087 146.468L344.532 148.991C344.028 149.159 343.484 148.887 343.316 148.384L343.278 148.27C343.109 147.766 343.381 147.222 343.885 147.053L351.439 144.53C351.943 144.362 352.488 144.634 352.656 145.138Z" fill="#162B1D"/>
<path d="M89.6545 424.867C97.9922 423.633 99.5625 424.404 103.685 431.756C102.451 423.418 103.222 421.848 110.574 417.725C102.236 418.959 100.666 418.188 96.5435 410.836C97.7772 419.174 97.0062 420.745 89.6545 424.867Z" fill="#FFEB39"/>
<path d="M250.291 345.356C256.102 351.461 256.376 353.189 252.741 360.793C258.846 354.982 260.574 354.707 268.178 358.343C262.367 352.238 262.093 350.51 265.728 342.906C259.623 348.717 257.895 348.991 250.291 345.356Z" fill="#FFEB39"/>
<path d="M288.063 78.526C293.874 84.631 294.148 86.3589 290.513 93.963C296.618 88.152 298.346 87.8778 305.95 91.5131C300.139 85.4081 299.865 83.6803 303.5 76.0761C297.395 81.8871 295.667 82.1614 288.063 78.526Z" fill="#FFEB39"/>
<path d="M368.955 226.692C374.766 232.797 375.04 234.525 371.405 242.129C377.51 236.318 379.238 236.044 386.842 239.679C381.031 233.574 380.757 231.846 384.392 224.242C378.287 230.053 376.559 230.327 368.955 226.692Z" fill="#FFEB39"/>
<path d="M176.4 419.085C173.778 414.409 172.779 413.919 167.477 414.704C172.152 412.082 172.643 411.083 171.858 405.781C174.48 410.456 175.478 410.947 180.781 410.162C176.105 412.784 175.615 413.782 176.4 419.085Z" fill="#FFEB39"/>
<path d="M292.889 287.374C290.268 282.699 289.269 282.208 283.966 282.993C288.642 280.372 289.132 279.373 288.347 274.071C290.969 278.746 291.968 279.236 297.27 278.452C292.595 281.073 292.104 282.072 292.889 287.374Z" fill="#FFEB39"/>
<path d="M314.323 180.204C311.702 175.529 310.703 175.038 305.4 175.823C310.076 173.201 310.566 172.203 309.782 166.9C312.403 171.575 313.402 172.066 318.704 171.281C314.029 173.903 313.538 174.902 314.323 180.204Z" fill="#FFEB39"/>
<path d="M243.061 134.859C240.44 130.184 239.441 129.694 234.138 130.478C238.814 127.857 239.304 126.858 238.52 121.556C241.141 126.231 242.14 126.721 247.442 125.937C242.767 128.558 242.276 129.557 243.061 134.859Z" fill="#FFEB39"/>
<path d="M268.167 434.951C276.592 435.18 278.005 436.211 280.792 444.166C281.021 435.74 282.052 434.327 290.007 431.541C281.581 431.312 280.168 430.281 277.382 422.326C277.153 430.751 276.121 432.165 268.167 434.951ZM281.68 420.7C287.038 420.845 287.937 421.502 289.709 426.56C289.854 421.202 290.51 420.303 295.569 418.531C290.211 418.386 289.312 417.73 287.54 412.671C287.395 418.029 286.739 418.928 281.68 420.7Z" fill="#FFEB39"/>
<path d="M160.416 272.421C158.89 280.71 157.653 281.947 149.364 283.473C157.653 284.999 158.89 286.236 160.416 294.525C161.942 286.236 163.179 284.999 171.468 283.473C163.179 281.947 161.942 280.71 160.416 272.421ZM172.411 287.971C171.441 293.242 170.654 294.029 165.383 295C170.654 295.97 171.441 296.757 172.411 302.028C173.382 296.757 174.169 295.97 179.44 295C174.169 294.029 173.382 293.242 172.411 287.971Z" fill="#FFEB39"/>
<path d="M346.93 52.1781H357.025L364.636 86.8142H337.61L346.93 52.1781Z" fill="#E39800"/>
<path d="M360.733 30.8429L352.175 42.6211L343.618 30.9349L350.243 13.1756C350.611 12.3474 351.347 11.8873 352.175 11.8873C353.003 11.8873 353.74 12.3474 354.108 13.2676L360.733 30.8429Z" fill="#F8D462"/>
<path d="M352.175 11.7955V42.6214L343.618 30.9351L350.243 13.1758C350.611 12.1636 351.347 11.7955 352.175 11.7955Z" fill="#F6AD18"/>
<path d="M352.175 42.6211L338.373 47.13L323.466 35.2597C322.73 34.7076 322.546 33.7875 322.822 33.0513C323.098 32.3152 323.742 31.6711 324.662 31.6711L343.618 30.8429L352.175 42.6211Z" fill="#F8D462"/>
<path d="M352.175 42.6214L338.373 47.1303L323.466 35.2601C322.73 34.7079 322.546 33.7878 322.822 33.0516L352.175 42.6214Z" fill="#F6AD18"/>
<path d="M352.175 57.0679L336.44 67.6499C335.612 68.202 334.784 68.11 334.048 67.5579C333.404 67.0978 333.035 66.2697 333.311 65.3495L338.372 47.1301L352.175 42.6212V57.0679Z" fill="#F8D462"/>
<path d="M352.175 57.0679L336.44 67.6499C335.612 68.202 334.784 68.11 334.048 67.5579L352.175 42.6212V57.0679Z" fill="#F6AD18"/>
<path d="M370.303 67.5579C369.658 68.018 368.738 68.11 367.91 67.6499L352.175 57.16V42.6212L365.978 47.1301L371.039 65.3495C371.315 66.2697 370.947 67.0978 370.303 67.5579Z" fill="#F8D462"/>
<path d="M370.303 67.5579L352.175 42.6212L365.978 47.1301L371.039 65.3495C371.315 66.2697 370.947 67.0978 370.303 67.5579Z" fill="#F6AD18"/>
<path d="M380.793 35.3517L365.978 47.13L352.175 42.6211L360.641 30.8429L379.596 31.6711C380.517 31.6711 381.253 32.3152 381.437 33.0513C381.805 33.8795 381.621 34.7076 380.793 35.3517Z" fill="#F8D462"/>
<path d="M381.529 33.0513L352.175 42.6211L360.641 30.8429L379.596 31.6711C380.609 31.6711 381.253 32.3152 381.529 33.0513Z" fill="#F6AD18"/>
<path d="M363.677 31.8553L364.689 33.7876L366.53 34.7998L364.689 35.812L363.677 37.7444L362.573 35.812L360.733 34.7998L362.573 33.7876L363.677 31.8553ZM375.731 33.3276L375.639 34.6158L376.284 35.812L374.903 35.72L373.707 36.3641L373.799 34.9839L373.155 33.7876L374.535 33.8797L375.731 33.3276ZM366.438 59.5525L366.254 60.9328L366.898 62.129L365.518 61.945L364.321 62.5891L364.505 61.2088L363.861 60.0126L365.241 60.1966L366.438 59.5525ZM366.07 41.8852L365.978 43.2654L366.53 44.4617L365.241 44.3696L363.953 44.9217L364.137 43.6335L363.493 42.4373L364.873 42.5293L366.07 41.8852ZM340.581 41.057L340.397 42.4373L341.041 43.6335L339.661 43.5415L338.464 44.0936L338.648 42.8053L338.004 41.6091L339.293 41.7011L340.581 41.057ZM337.452 62.5891L337.36 63.9693L338.004 65.1656L336.624 64.9815L335.428 65.6257L335.52 64.3374L334.968 63.0492L336.256 63.2332L337.452 62.5891ZM350.335 44.1856L350.151 45.5659L350.795 46.7621L349.415 46.6701L348.218 47.2222L348.402 45.9339L347.758 44.7377L349.138 44.8297L350.335 44.1856ZM328.066 33.6956L327.882 35.0759L328.527 36.2721L327.238 36.0881L325.95 36.7322L326.134 35.3519L325.49 34.1557L326.87 34.3398L328.066 33.6956ZM352.175 19.2489L353.187 21.1813L355.12 22.1935L353.187 23.2056L352.175 25.138L351.163 23.2056L349.23 22.1935L351.163 21.1813L352.175 19.2489ZM341.501 31.8553L342.513 33.7876L344.354 34.7998L342.513 35.812L341.501 37.7444L340.397 35.812L338.556 34.7998L340.397 33.7876L341.501 31.8553ZM352.175 36.0881L353.187 37.9284L355.12 38.9406L353.187 40.0448L352.175 41.8852L351.163 40.0448L349.23 38.9406L351.163 37.9284L352.175 36.0881ZM360.733 45.7499L361.745 47.5903L363.677 48.6945L361.745 49.7067L360.733 51.547L359.72 49.7067L357.788 48.6945L359.72 47.5903L360.733 45.7499ZM355.12 52.1911L356.132 54.0315L357.972 55.0437L356.132 56.1479L355.12 57.9882L354.015 56.1479L352.175 55.0437L354.015 54.0315L355.12 52.1911ZM343.617 48.6945L344.63 50.5348L346.562 51.547L344.63 52.6512L343.617 54.4916L342.605 52.6512L340.673 51.547L342.605 50.5348L343.617 48.6945Z" fill="#F4F4F4"/>
<defs>
<linearGradient id="paint0_linear_298_1083" x1="-340.655" y1="538.979" x2="749.094" y2="709.365" gradientUnits="userSpaceOnUse">
<stop offset="0.31" stop-color="#030C45"/>
<stop offset="0.66" stop-color="#02135C"/>
<stop offset="0.97" stop-color="#001A73"/>
</linearGradient>
<linearGradient id="paint1_linear_298_1083" x1="-124.38" y1="549.13" x2="747.146" y2="731.087" gradientUnits="userSpaceOnUse">
<stop offset="0.31" stop-color="#030C45"/>
<stop offset="0.47" stop-color="#091D5C"/>
<stop offset="0.8" stop-color="#174A95"/>
<stop offset="0.97" stop-color="#2064B7"/>
</linearGradient>
<linearGradient id="paint2_linear_298_1083" x1="481.512" y1="65.8859" x2="359.569" y2="376.563" gradientUnits="userSpaceOnUse">
<stop stop-color="#34517D"/>
<stop offset="1" stop-color="#A4BADD"/>
</linearGradient>
<linearGradient id="paint3_linear_298_1083" x1="445.284" y1="88.8008" x2="400.299" y2="243.174" gradientUnits="userSpaceOnUse">
<stop stop-color="#34517D"/>
<stop offset="1" stop-color="#A4BADD"/>
</linearGradient>
<linearGradient id="paint4_linear_298_1083" x1="385.513" y1="179.669" x2="389.827" y2="343.205" gradientUnits="userSpaceOnUse">
<stop offset="0.01" stop-color="#E1D4F2"/>
<stop offset="0.62" stop-color="#A8A9D5"/>
<stop offset="1" stop-color="#5078BD"/>
</linearGradient>
<linearGradient id="paint5_linear_298_1083" x1="402.689" y1="99.9416" x2="414.138" y2="219.426" gradientUnits="userSpaceOnUse">
<stop offset="0.01" stop-color="#E1D4F2"/>
<stop offset="0.62" stop-color="#A8A9D5"/>
<stop offset="1" stop-color="#5078BD"/>
</linearGradient>
<linearGradient id="paint6_linear_298_1083" x1="380.954" y1="350.679" x2="475.373" y2="504.259" gradientUnits="userSpaceOnUse">
<stop stop-color="#34517D"/>
<stop offset="1" stop-color="#A4BADD"/>
</linearGradient>
<linearGradient id="paint7_linear_298_1083" x1="389.943" y1="328.423" x2="394.88" y2="516.166" gradientUnits="userSpaceOnUse">
<stop offset="0.01" stop-color="#E1D4F2"/>
<stop offset="0.62" stop-color="#A8A9D5"/>
<stop offset="1" stop-color="#5078BD"/>
</linearGradient>
<linearGradient id="paint8_linear_298_1083" x1="338.343" y1="450.857" x2="343.741" y2="655.95" gradientUnits="userSpaceOnUse">
<stop offset="0.01" stop-color="#E1D4F2"/>
<stop offset="0.62" stop-color="#A8A9D5"/>
<stop offset="1" stop-color="#5078BD"/>
</linearGradient>
<linearGradient id="paint9_linear_298_1083" x1="120.617" y1="532.528" x2="123.858" y2="654.156" gradientUnits="userSpaceOnUse">
<stop stop-color="#34517D"/>
<stop offset="1" stop-color="#A4BADD"/>
</linearGradient>
<linearGradient id="paint10_linear_298_1083" x1="256.49" y1="302.207" x2="258.349" y2="373.196" gradientUnits="userSpaceOnUse">
<stop offset="0.01" stop-color="#E1D4F2"/>
<stop offset="0.62" stop-color="#A8A9D5"/>
<stop offset="1" stop-color="#5078BD"/>
</linearGradient>
<linearGradient id="paint11_linear_298_1083" x1="286.356" y1="212.401" x2="288.183" y2="281.622" gradientUnits="userSpaceOnUse">
<stop offset="0.01" stop-color="#E1D4F2"/>
<stop offset="0.62" stop-color="#A8A9D5"/>
<stop offset="1" stop-color="#5078BD"/>
</linearGradient>
<linearGradient id="paint12_linear_298_1083" x1="279.942" y1="126.531" x2="281.605" y2="188.63" gradientUnits="userSpaceOnUse">
<stop offset="0.01" stop-color="#E1D4F2"/>
<stop offset="0.62" stop-color="#A8A9D5"/>
<stop offset="1" stop-color="#5078BD"/>
</linearGradient>
<linearGradient id="paint13_linear_298_1083" x1="190.701" y1="389.371" x2="190.427" y2="488.235" gradientUnits="userSpaceOnUse">
<stop stop-color="#34517D"/>
<stop offset="1" stop-color="#A4BADD"/>
</linearGradient>
</defs>
</svg>
