<svg width="205" height="197" viewBox="0 0 205 197" fill="none" xmlns="http://www.w3.org/2000/svg">
<g filter="url(#filter0_f_330_3913)">
<path d="M30.9093 39.1632L24.5209 55.2965L132.073 58.3456L161.132 22.6173L30.9093 39.1632Z" fill="url(#paint0_linear_330_3913)"/>
<path d="M185.288 51.9973L174.511 38.4052L118.049 130.011L134.453 173.024L185.288 51.9973Z" fill="url(#paint1_linear_330_3913)"/>
<path d="M95.0971 180.04L112.145 177.452L61.5724 82.2048L16.4439 74.9428L95.0971 180.04Z" fill="url(#paint2_linear_330_3913)"/>
<path d="M25.1299 55.0446L17.1033 74.154L62.0746 81.2667L133.473 57.5751L25.1299 55.0446Z" fill="url(#paint3_linear_330_3913)"/>
<path d="M61.3746 81.6616L117.128 130.898L133.532 173.91L112.72 177.072L61.3746 81.6616Z" fill="url(#paint4_linear_330_3913)"/>
<path d="M174.774 39.347L162.525 22.1254L132.685 57.4846L118.312 130.953L174.774 39.347Z" fill="url(#paint5_linear_330_3913)"/>
</g>
<defs>
<filter id="filter0_f_330_3913" x="0.443893" y="6.12549" width="200.844" height="189.914" filterUnits="userSpaceOnUse" color-interpolation-filters="sRGB">
<feFlood flood-opacity="0" result="BackgroundImageFix"/>
<feBlend mode="normal" in="SourceGraphic" in2="BackgroundImageFix" result="shape"/>
<feGaussianBlur stdDeviation="8" result="effect1_foregroundBlur_330_3913"/>
</filter>
<linearGradient id="paint0_linear_330_3913" x1="61.9018" y1="59.8839" x2="145.077" y2="37.6048" gradientUnits="userSpaceOnUse">
<stop stop-color="#37FFCF"/>
<stop offset="1" stop-color="#377BFF"/>
</linearGradient>
<linearGradient id="paint1_linear_330_3913" x1="151.832" y1="68.4815" x2="129.573" y2="151.652" gradientUnits="userSpaceOnUse">
<stop stop-color="#37FFCF"/>
<stop offset="1" stop-color="#377BFF"/>
</linearGradient>
<linearGradient id="paint2_linear_330_3913" x1="97.6043" y1="142.565" x2="36.4158" y2="82.2397" gradientUnits="userSpaceOnUse">
<stop stop-color="#37FFCF"/>
<stop offset="1" stop-color="#377BFF"/>
</linearGradient>
<linearGradient id="paint3_linear_330_3913" x1="-12.5226" y1="83.7039" x2="34.4999" y2="-16.7001" gradientUnits="userSpaceOnUse">
<stop stop-color="#00DBE5"/>
<stop offset="1" stop-color="#9C4EFF"/>
</linearGradient>
<linearGradient id="paint4_linear_330_3913" x1="4.33377" y1="155.645" x2="57.0868" y2="44.0334" gradientUnits="userSpaceOnUse">
<stop stop-color="#00DBE5"/>
<stop offset="1" stop-color="#9C4EFF"/>
</linearGradient>
<linearGradient id="paint5_linear_330_3913" x1="82.2291" y1="158.396" x2="203.519" y2="-11.9821" gradientUnits="userSpaceOnUse">
<stop stop-color="#00DBE5"/>
<stop offset="1" stop-color="#9C4EFF"/>
</linearGradient>
</defs>
</svg>
