<svg width="100" height="30" viewBox="0 0 100 30" fill="none" xmlns="http://www.w3.org/2000/svg">
<g id="versos_logo_1 1">
<path id="Vector" d="M99.6668 0.810059H16.769V29.0209H99.6668V0.810059Z" fill="white"/>
<path id="Vector_2" d="M99.6667 0.810059H0.333374V28.9426H99.6667V0.810059Z" fill="#4A649C"/>
<path id="Vector_3" d="M47.5319 15.4454C46.2433 14.7823 45.7708 13.0849 45.8066 11.8777C45.8441 10.1477 47.2384 8.07553 50.0179 7.93905C50.673 7.9006 52.9406 7.9006 54.7752 10.4918L52.2516 13.0656C52.1269 12.9823 52.0162 12.8771 51.924 12.7543C51.7991 12.6267 51.6658 12.5092 51.525 12.4025C51.3656 12.2681 51.1831 12.1688 50.988 12.1103C50.3169 12.0142 49.8085 12.4428 49.8085 12.91C49.7531 13.2944 50.3455 13.6501 50.5888 13.6904C51.4838 13.9633 52.1138 14.4304 52.9299 14.9764C54.7824 16.2835 55.108 17.6272 55.0902 18.4364C55.0365 20.6797 53.5832 22.5712 50.5154 22.7269C48.2103 22.823 46.4491 21.958 45.0155 20.0549L47.6483 17.3061C48.1386 17.9116 48.9726 18.5344 49.7531 18.496C50.5154 18.496 50.9146 18.1442 50.8431 17.7156C50.8072 17.4811 50.3169 16.8966 50.0072 16.7544C48.4769 16.1278 48.3499 15.8548 47.5319 15.4454Z" fill="white"/>
<path id="Vector_4" d="M69.9151 15.5039C69.9151 19.8904 66.7936 22.9315 62.9456 22.8738C59.4233 22.7373 56.0836 20.221 56.0478 15.5039C56.0102 10.6099 59.6775 8.05713 62.9456 8.05713C66.1762 8.05713 69.9151 10.6099 69.9151 15.5039ZM62.9456 18.6237C63.7104 18.6107 64.4402 18.2772 64.9792 17.6943C65.5183 17.1114 65.8238 16.3253 65.8307 15.5039C65.8121 14.6977 65.5007 13.9313 64.9632 13.3682C64.4256 12.8051 63.7045 12.49 62.9536 12.49C62.2028 12.49 61.4817 12.8051 60.9442 13.3682C60.4067 13.9313 60.0953 14.6977 60.0766 15.5039C60.077 16.3245 60.3782 17.112 60.9152 17.6959C61.4521 18.2798 62.1816 18.613 62.9456 18.6237Z" fill="white"/>
<path id="Vector_5" d="M77.7579 18.6233C79.2453 18.6233 79.1558 17.5891 79.1558 15.7957V8.42578H83.1488V15.9513C83.1488 20.2803 81.5882 22.931 77.7579 22.8715C74.1999 22.7388 72.4208 20.7474 72.4101 16.0494V12.8124H71.4114L72.4101 8.42578H76.4032L76.3673 15.7957C76.3602 17.5891 76.251 18.6233 77.7579 18.6233Z" fill="white"/>
<path id="Vector_6" d="M87.0147 15.4454C85.7261 14.7823 85.2553 13.0849 85.2911 11.8777C85.327 10.1477 86.723 8.07553 89.5025 7.93905C90.1558 7.9006 92.4255 7.9006 94.2577 10.4918L91.7398 13.0656C91.6152 12.9829 91.5051 12.8775 91.414 12.7543C91.2891 12.6267 91.1557 12.5092 91.0149 12.4025C90.8552 12.2687 90.6729 12.1695 90.478 12.1103C89.8068 12.0142 89.2985 12.4428 89.2985 12.91C89.2448 13.2944 89.8354 13.6501 90.0788 13.6904C90.9737 13.9633 91.6037 14.4304 92.4219 14.9764C94.2724 16.2835 94.5998 17.6272 94.5805 18.4364C94.5263 20.6797 93.0749 22.5712 90.0072 22.7269C87.702 22.823 85.9408 21.958 84.5072 20.0549L87.1382 17.3061C87.6286 17.9116 88.4644 18.5344 89.2448 18.496C90.0072 18.496 90.4064 18.1442 90.333 17.7156C90.2971 17.4811 89.8068 16.8966 89.499 16.7544C87.9597 16.1278 87.8327 15.8548 87.0147 15.4454Z" fill="white"/>
<path id="Vector_7" d="M43.5604 0.810059H0.333374V29.0209H43.5604V0.810059Z" fill="black"/>
<path id="Vector_8" d="M18.3762 12.5027L19.4107 8.11611H24.4579V7.74512H28.1789L27.071 12.5007H23.3858V13.5734H27.8335L27.071 17.0642H23.3858V18.1252H28.1789L27.1623 22.1427H19.4107V12.5027H18.3762Z" fill="white"/>
<path id="Vector_9" d="M30.4752 12.4454L29.4408 12.3878L30.4752 7.98003H34.4325C36.5015 7.98003 41.0762 7.8051 40.7326 13.7468C40.6592 15.2673 39.988 16.9819 38.336 17.82L40.7308 21.9797H35.9932L34.4325 18.5485V21.9797H30.4752V12.4454ZM34.4325 14.5503H35.0035C35.2237 14.5637 35.4444 14.5377 35.6567 14.4734C36.4013 14.3753 36.6554 13.8487 36.6554 13.4007C36.6554 12.9913 36.4013 12.4839 35.6567 12.3281C35.4563 12.3089 35.22 12.3089 35.0035 12.3089H34.4397L34.4325 14.5503Z" fill="white"/>
<path id="Vector_10" d="M13.4956 8.13037H17.6425L13.168 22.5337H9.94641L5.39319 8.13037H9.68869L11.6073 15.2907L13.4956 8.13037Z" fill="white"/>
</g>
</svg>
